<?xml version="1.0" encoding="UTF-8" standalone="no"?>
<svg
   version="1.1"
   id="ThinkAheadLogo"
   x="0px"
   y="0px"
   width="900"
   height="900"
   viewBox="0 0 899.99989 899.99999"
   enable-background="new 0 0 4000 2000"
   xml:space="preserve"
   sodipodi:docname="think-ahead.svg"
   inkscape:version="1.4 (e7c3feb1, 2024-10-09)"
   inkscape:export-filename="think-ahead.png"
   inkscape:export-xdpi="19.200001"
   inkscape:export-ydpi="19.200001"
   xmlns:inkscape="http://www.inkscape.org/namespaces/inkscape"
   xmlns:sodipodi="http://sodipodi.sourceforge.net/DTD/sodipodi-0.dtd"
   xmlns="http://www.w3.org/2000/svg"
   xmlns:svg="http://www.w3.org/2000/svg">
    <defs
   id="defs28">

    </defs>
    <sodipodi:namedview
   id="namedview28"
   pagecolor="#ffffff"
   bordercolor="#000000"
   borderopacity="0.25"
   inkscape:showpageshadow="2"
   inkscape:pageopacity="0.0"
   inkscape:pagecheckerboard="0"
   inkscape:deskcolor="#d1d1d1"
   inkscape:zoom="0.18306742"
   inkscape:cx="748.35818"
   inkscape:cy="316.82317"
   inkscape:window-width="1512"
   inkscape:window-height="945"
   inkscape:window-x="0"
   inkscape:window-y="37"
   inkscape:window-maximized="0"
   inkscape:current-layer="base-objects"
   showgrid="false" />

    <g
   id="base-objects"
   inkscape:label="Base objects"
   style="display:none"
   transform="translate(-99.154309,113.01053)">
        <path
   style="color:#000000;display:none;fill:#1c759c;fill-opacity:1;-inkscape-stroke:none"
   d="m 612.86152,655.08475 c -41.44779,33.11264 -94.05044,52.91015 -151.49805,52.91016 -51.43386,0 -98.96053,-15.88863 -138.08399,-42.98438 h -35.11914 l -28.21679,51.9707 c 55.24751,44.38563 125.30185,71.0293 201.41992,71.0293 70.91679,0 136.5704,-23.13931 189.9082,-62.18359 z"
   id="circle-bottom-base"
   inkscape:label="Circle bottom (left gap 32)"
   transform="translate(96.241999,-113.01053)" /><path
   style="color:#000000;display:none;fill:#1c759c;fill-opacity:1;-inkscape-stroke:none"
   d="m 510.59625,146.77789 53.76563,99.02539 c 61.15262,28.57408 108.21324,81.87049 128.51953,147.20703 h 13.30468 V 256.05914 C 657.09836,198.78051 588.38142,158.77767 510.59625,146.77789 Z"
   id="circle-top-right-base-longer"
   inkscape:label="Circle top right (longer)"
   transform="translate(96.241999,-113.01053)" /><path
   style="color:#000000;display:inline;fill:#1c759c;fill-opacity:1;-inkscape-stroke:none"
   d="M 408.46894,147.41483 C 279.70497,168.82577 176.35917,266.96342 147.20527,393.01053 h 82.60742 c 19.78209,-63.69117 65.07797,-115.80367 123.9707,-144.87305 z"
   id="circle-top-left-base-longer"
   inkscape:label="Circle top left (longer)"
   transform="translate(96.241999,-113.01053)" /><path
   style="color:#000000;display:none;fill:#1c759c;fill-opacity:0.5;-inkscape-stroke:none"
   d="m 606.83789,33.767578 53.76563,99.025392 C 743.16677,171.37134 800.0918,254.99203 800.0918,352.5 c 0,4.19271 -0.21525,8.32939 -0.42774,12.4668 l 57.64258,106.16406 C 871.96312,434.38234 880.10547,394.37913 880.10547,352.5 880.10547,191.59707 761.24699,57.587981 606.83789,33.767578 Z"
   id="circle-top-right-base"
   inkscape:label="Circle top right unbroken" />
        <path
   style="color:#000000;display:inline;fill:#1c759c;fill-opacity:0.5;-inkscape-stroke:none"
   d="m 557.605,30 c -177.63778,0 -322.5,144.86222 -322.5,322.5 0,177.63778 144.86221,322.5 322.5,322.5 177.63778,0 322.5,-144.86222 322.5,-322.5 C 880.105,174.86222 735.24278,30 557.605,30 Z m 0,80.01563 c 134.39429,0 242.48633,108.09008 242.48633,242.48437 0,134.39429 -108.09204,242.48437 -242.48633,242.48437 -134.39429,0 -242.48438,-108.09008 -242.48438,-242.48437 0,-134.39429 108.09009,-242.48438 242.48438,-242.48437 z"
   id="circle-base"
   inkscape:label="Circle unbroken" />
    <path
   id="path34"
   style="display:inline;fill:#24bc77;fill-opacity:1;stroke:none;stroke-width:159.743"
   inkscape:label="A left (base)"
   d="M 555.94903,-1.0203 205.18731,645.00119 h 96.72071 l 302.40039,-556.95313 -0.002,-0.002 0.002,-0.002 z"
   sodipodi:nodetypes="ccccccc" /><path
   id="path53"
   style="display:inline;fill:#29abe2;fill-opacity:0.5;stroke-width:114.369;stroke-opacity:0.497191"
   inkscape:transform-center-x="-26.666689"
   inkscape:transform-center-y="3.9096342e-06"
   d="m 842.92231,502.49947 v -300 l 150,150 z"
   inkscape:label="Arrowhead unbroken"
   sodipodi:nodetypes="cccc" /><path
   style="display:inline;fill:#000000;fill-opacity:1;stroke:#000000;stroke-width:0.5;stroke-dasharray:none"
   d="M 896.681,465.51 651.231,725.751"
   id="path7"
   sodipodi:nodetypes="cc"
   transform="translate(96.242308,-113.01053)"
   inkscape:label="Arrowhead guide line to bottom circle" /><path
   style="display:inline;fill:#000000;fill-opacity:1;stroke:#000000;stroke-width:0.5;stroke-dasharray:none"
   d="M 896.681,465.51 714.68,266.434"
   id="path9"
   sodipodi:nodetypes="cc"
   transform="translate(96.242308,-113.01053)"
   inkscape:label="Arrowhead guide line to top circle" /></g>

    <g
   id="eye-right-top-gleam"
   inkscape:label="Gaps"
   style="display:none"
   transform="translate(-99.154,113.01053)">
        <path
   id="path76"
   style="display:inline;fill:#1a1a1a;fill-opacity:0.58427;stroke:none;stroke-width:86.0496;stroke-dasharray:none;stroke-opacity:0.497191"
   inkscape:label="A right bar right gap (32 width)"
   d="M 569.959,24.7832 906.70928,645 H 938.709 L 601.959,24.7832 Z"
   sodipodi:nodetypes="ccccc" />
        <path
   id="path75"
   style="display:inline;fill:#1a1a1a;fill-opacity:0.58427;stroke:none;stroke-width:86.0496;stroke-dasharray:none;stroke-opacity:0.497191"
   inkscape:label="A right bar right gap (45 width)"
   d="M 569.959,24.7832 906.70928,645 h 45 L 614.959,24.7832 Z"
   sodipodi:nodetypes="ccccc" /><path
   id="path37"
   style="display:inline;fill:#1a1a1a;fill-opacity:0.58427;stroke:none;stroke-width:86.0496;stroke-dasharray:none;stroke-opacity:0.497191"
   inkscape:label="A right bar left gap"
   d="M 428.238,24.7832 764.98828,645 h 45 L 473.238,24.7832 Z"
   sodipodi:nodetypes="ccccc" /><path
   id="path5"
   style="display:inline;fill:#1a1a1a;fill-opacity:0.58427;stroke:none;stroke-width:86.0496;stroke-dasharray:none;stroke-opacity:0.497191"
   inkscape:label="A left bar right gap (45 width)"
   d="M 555.94727,177.11523 301.9082,645 H 346.908 L 584.947,206.58398 Z"
   sodipodi:nodetypes="ccccc" />
        <path
   id="path60"
   style="display:inline;fill:#1a1a1a;fill-opacity:0.58427;stroke:none;stroke-width:86.0496;stroke-dasharray:none;stroke-opacity:0.497191"
   inkscape:label="A left bar right gap (32 width)"
   d="M 555.94727,177.11523 301.9082,645 h 32 L 571.94727,206.58398 Z"
   sodipodi:nodetypes="ccccc" />
        <path
   id="path58"
   style="display:inline;fill:#1a1a1a;fill-opacity:0.58427;stroke:none;stroke-width:86.0496;stroke-dasharray:none;stroke-opacity:0.497191"
   inkscape:label="A left bar left gap (32 width)"
   d="M 509.936,24.783203 173.188,645 h 31.9995 L 541.93555,24.783203 Z"
   sodipodi:nodetypes="ccccc" />
        <path
   id="path39"
   style="display:inline;fill:#1a1a1a;fill-opacity:0.58427;stroke:none;stroke-width:86.0496;stroke-dasharray:none;stroke-opacity:0.497191"
   inkscape:label="A left bar left gap (45 width)"
   d="M 496.936,24.783203 160.188,645 h 44.9995 L 541.93555,24.783203 Z"
   sodipodi:nodetypes="ccccc" />
        <path
   id="path72"
   style="display:inline;fill:#4d4d4d;fill-opacity:0.582121;stroke-width:63.1964;stroke-opacity:0.497191"
   inkscape:label="Arrowhead left gap"
   d="m 714.68,244.43635 h 32 V 729.3904 h -32 z"
   transform="translate(96.241999,-113.01053)" /><path
   id="path87"
   style="display:inline;fill:#4d4d4d;fill-opacity:0.582121;stroke-width:57.225;stroke-opacity:0.497191"
   inkscape:label="Arrowhead left gap (off-centre)"
   d="m 802.242,139.58174 h 32 v 397.63773 h -32 z" />
        <path
   id="path62"
   style="display:inline;fill:#333333;fill-opacity:0.58427;stroke:none;stroke-width:65.2604;stroke-dasharray:none;stroke-opacity:0.497191"
   inkscape:label="gap below A bar"
   d="m 75.01962,509.99847 v 32 h 601.80404 l 2.9e-4,-32 z"
   sodipodi:nodetypes="ccccc" />
        <path
   id="path55"
   style="display:inline;fill:#1a1a1a;fill-opacity:0.58427;stroke:none;stroke-width:56.4765;stroke-dasharray:none;stroke-opacity:0.497191"
   inkscape:label="gap below arrow bar"
   d="m 135.12109,389.99847 v 45 H 658.154 v -45 z"
   sodipodi:nodetypes="ccccc" />
        <path
   id="path54"
   style="fill:#1a1a1a;fill-opacity:0.58427;stroke:none;stroke-width:56.4765;stroke-dasharray:none;stroke-opacity:0.497191"
   inkscape:label="gap above arrow bar"
   d="m 145.12109,269.99847 v 45 H 595.154 v -45 z"
   sodipodi:nodetypes="ccccc" />
        <path
   id="path97"
   style="display:inline;fill:#1a1a1a;fill-opacity:0.58427;stroke:none;stroke-width:34.8042;stroke-dasharray:none;stroke-opacity:0.497191"
   inkscape:label="gap above arrowhead bar (45 height)"
   d="m 733.1781,269.99847 v 45 h 173.42717 l 7e-5,-45 z"
   sodipodi:nodetypes="ccccc" />
        <path
   id="path8"
   style="display:inline;fill:#1a1a1a;fill-opacity:0.58427;stroke:none;stroke-width:29.3495;stroke-dasharray:none;stroke-opacity:0.497191"
   inkscape:label="gap above arrowhead bar (32 height)"
   d="m 733.1781,282.99847 v 32 h 173.42717 l 7e-5,-32 z"
   sodipodi:nodetypes="ccccc" /><path
   id="path49"
   style="display:inline;fill:#1a1a1a;fill-opacity:0.58427;stroke:none;stroke-width:86.0496;stroke-dasharray:none;stroke-opacity:0.497191"
   inkscape:label="Far left alignment"
   d="M 328.83705,24.783203 -7.911,645 h 40 L 368.83705,24.783203 Z" />
    </g>

    <g
   id="eyes-top"
   inkscape:label="Eyes (top)"
   style="display:none"
   transform="translate(-2.9120009,14.99452)"><circle
     style="fill:#ffffff;fill-opacity:1;stroke:none;stroke-width:66.6666"
     id="eye-top-right"
     cx="599.6319"
     cy="451.87683"
     r="33.271351"
     inkscape:label="Right eye" /><circle
     style="fill:#000000;fill-opacity:1;stroke:none;stroke-width:80"
     id="eye-top-right-pupil"
     cx="609.23688"
     cy="446.66998"
     r="21.015503"
     inkscape:label="Right pupil" /><circle
     style="display:inline;fill:#ffffff;fill-opacity:1;stroke:none;stroke-width:111.247"
     id="eye-top-right-gleam"
     cx="600.4903"
     cy="436.18365"
     r="3.1391785"
     inkscape:label="Right gleam" /><circle
     style="display:inline;fill:#ffffff;fill-opacity:1;stroke:none;stroke-width:66.6666"
     id="eye-top-left"
     cx="356.13458"
     cy="451.87683"
     r="33.271351"
     inkscape:label="Left eye" /><circle
     style="display:inline;fill:#000000;fill-opacity:1;stroke:none;stroke-width:80"
     id="eye-top-left-pupil"
     cx="345.93204"
     cy="456.0108"
     r="21.015503"
     inkscape:label="Left pupil" /><circle
     style="fill:#ffffff;fill-opacity:1;stroke:none;stroke-width:111.247"
     id="eye-top-left-gleam"
     cx="335.10022"
     cy="446.59375"
     r="3.1391785"
     inkscape:label="Left gleam" /></g>

     <rect
   style="display:none;fill:#008000;fill-opacity:1;stroke:none;stroke-width:1.70073;stroke-opacity:1"
   id="background"
   width="900"
   height="900"
   x="0"
   y="0"
   inkscape:label="Square background"
   inkscape:export-filename="think-ahead.png"
   inkscape:export-xdpi="96"
   inkscape:export-ydpi="96" />

   <g
   id="text"
   inkscape:label="Think Ahead text - bottom"
   transform="translate(-1564.3431,-269.68947)"
   inkscape:export-filename="think-ahead-text-below.png"
   inkscape:export-xdpi="96"
   inkscape:export-ydpi="96"
   style="display:inline">
        <path
   fill-rule="evenodd"
   clip-rule="evenodd"
   fill="#29abe2"
   d="m 2608.435,1412.361 c 0,-38.167 0,-73.365 0,-109.567 21.349,0 41.238,0 62.187,0 0,93.433 0,185.997 0,279.668 -20.553,0 -40.424,0 -61.094,0 -0.612,-7.487 -1.16,-14.153 -1.937,-23.646 -25.614,23.374 -53.579,32.157 -85.697,23.133 -21.78,-6.121 -38.803,-19.292 -51.997,-37.197 -29.473,-39.995 -26.431,-94.736 6.671,-130.772 17.603,-19.165 39.476,-28.717 65.283,-30.567 26.062,-1.869 46.027,10.748 66.584,28.948 z m -98.233,69.67 c -0.44,28.466 18.907,50.786 44.274,51.074 28.304,0.326 51.386,-20.724 52.226,-47.627 0.884,-28.289 -20.334,-51.25 -47.622,-51.536 -27.935,-0.292 -48.441,19.884 -48.878,48.089 z"
   id="path11"
   inkscape:label="d" />
        <path
   fill-rule="evenodd"
   clip-rule="evenodd"
   fill="#29abe2"
   d="m 2067.071,1520.65 c 14.036,7.691 28.612,15.68 43.19,23.668 -19.896,36.9 -84.111,52.724 -130.166,32.244 -49.23,-21.892 -71.603,-72.276 -53.966,-127.33 16.148,-50.406 71.824,-77.142 127.821,-63.24 51.135,12.693 80.33,60.189 71.132,118.082 -46.837,0 -94.017,0 -141.372,0 4.029,37.702 43.327,45.137 83.361,16.576 z m 1.257,-52.185 c -3.826,-24.777 -20.905,-38.089 -46.146,-37.455 -23.558,0.59 -39.666,14.873 -41.483,37.455 28.902,0 57.75,0 87.629,0 z"
   id="path17"
   inkscape:label="a" />
        <path
   fill-rule="evenodd"
   clip-rule="evenodd"
   fill="#29abe2"
   d="m 2326.23,1466.555 c 0.136,-12.847 -4.632,-21.313 -15.675,-26.697 -19.519,-9.52 -39.227,-7.97 -59.088,-1.814 -5.609,1.734 -10.995,4.193 -17.443,6.694 -11.689,-9.5 -23.445,-19.056 -36.613,-29.759 14.497,-14.232 31.797,-22.01 50.053,-27.322 25.088,-7.301 50.72,-7.352 76.189,-1.644 43.292,9.7 65.873,37.364 66.887,81.76 0.362,15.797 0.885,31.652 0.01,47.405 -1.24,22.289 0.687,42.206 30.535,49.225 -15.521,13.537 -30.251,21.767 -46.517,23.457 -18.844,1.959 -27.121,-15.266 -38.632,-27.952 -2.86,2.403 -5.799,4.698 -8.544,7.206 -31.457,28.729 -83.52,28.018 -115.11,-0.688 -32.421,-29.462 -23.773,-83.645 16.534,-98.816 31.923,-12.019 63.538,-11.805 97.416,-1.055 z m -0.681,35.346 c -10.586,-0.762 -20.38,-2.09 -30.156,-1.97 -7.77,0.094 -15.888,0.855 -23.182,3.31 -9.73,3.278 -17.771,9.808 -16.945,21.492 0.83,11.73 8.41,18.339 19.518,21.208 29.76,7.696 53.188,-11.836 50.765,-44.04 z"
   id="path15"
   inkscape:label="e" />
        <path
   fill-rule="evenodd"
   clip-rule="evenodd"
   fill="#29abe2"
   d="m 1861.686,1582.395 c -19.119,0 -38.087,0 -58.452,0 -0.25,-5.698 -0.667,-10.993 -0.683,-16.288 -0.098,-30.12 0.146,-60.241 -0.202,-90.357 -0.361,-31.34 -22.26,-48.259 -52.466,-39.5 -32.733,9.495 -36.522,20.854 -35.499,44.147 1.275,29.073 0.226,58.249 0.184,87.381 -0.01,4.792 0,9.584 0,15.176 -21.026,0 -40.122,0 -60.563,0 0,-93.419 0,-186.385 0,-280.324 19.828,0 39.276,0 60.297,0 0,33.92 0,67.312 0,103.263 5.426,-2.852 8.771,-4.236 11.716,-6.219 24.023,-16.155 50.651,-19.677 78.027,-13.403 32.687,7.49 54.408,29.513 56.837,62.329 3.258,44.025 0.806,88.473 0.806,133.795 z"
   id="path14"
   inkscape:label="h" />
        <path
   fill-rule="evenodd"
   clip-rule="evenodd"
   fill="#29abe2"
   d="m 1446.188,1312.641 c 16.073,0 31.292,0 48.989,0 36.649,88.928 73.556,178.481 111.198,269.814 -22.323,0 -42.593,0 -63.623,0 -6.008,-15.186 -11.945,-30.191 -17.929,-45.314 -37.688,0 -74.599,0 -112.279,0 -6.107,15.207 -12.115,30.163 -18.416,45.849 -20.883,0 -41.37,0 -64.75,0 36.211,-91.761 77.888,-179.619 116.81,-270.349 z m 24.541,97.983 c -1.168,0.067 -2.336,0.134 -3.502,0.198 -9.429,23.103 -18.859,46.204 -28.907,70.824 20.749,0 39.521,0 60.186,0 -9.654,-24.682 -18.716,-47.851 -27.777,-71.022 z"
   id="path12"
   inkscape:label="A" />
        <path
   fill-rule="evenodd"
   clip-rule="evenodd"
   fill="#29abe2"
   d="m 2289.155,1251.961 c -4.656,4.301 -8.566,7.914 -12.337,11.398 -0.367,7.921 -0.705,15.248 -1.098,23.716 -8.119,0 -15.697,0 -24.501,0 0,-31.244 0,-62.485 0,-94.929 7.354,0 14.466,0 23.399,0 0,13.182 0,26.697 0,38.633 14.648,-13.269 29.241,-26.486 43.701,-39.584 10.168,0 19.33,0 31.629,0 -14.72,16.277 -27.754,30.689 -41.514,45.904 13.094,15.996 26.318,32.148 41.16,50.277 -11.359,0 -20.339,0 -31.742,0 -8.48,-10.468 -18.285,-22.567 -28.697,-35.415 z"
   id="path21"
   inkscape:label="K" />
        <path
   fill-rule="evenodd"
   clip-rule="evenodd"
   fill="#29abe2"
   d="m 2095.016,1287.334 c 0,-33.093 0,-63.589 0,-95.228 6.754,0 12.895,0 18.916,0 18.597,17.856 37.404,35.915 58.016,55.708 0,-18.828 0,-36.49 0,-55.293 9.189,0 16.256,0 24.776,0 0,31.07 0,62.352 0,95.482 -6.214,0.277 -12.824,0.572 -16.839,0.75 -20.839,-19.338 -39.918,-37.041 -60.072,-55.745 0,17.919 0,35.734 0,54.325 -9.366,10e-4 -16.85,10e-4 -24.797,10e-4 z"
   id="path19"
   inkscape:label="N" />
        <path
   fill-rule="evenodd"
   clip-rule="evenodd"
   fill="#29abe2"
   d="m 2037.219,1288.395 c -8.582,0 -15.886,0 -24.628,0 0,-31.936 0,-63.497 0,-95.955 7.983,0 15.666,0 24.628,0 0,31.317 0,62.9 0,95.955 z"
   id="path23"
   inkscape:label="I" />
        <path
   fill-rule="evenodd"
   clip-rule="evenodd"
   fill="#29abe2"
   d="m 1931.717,1191.751 c 9.999,0 17.217,0 25.333,0 0,32.175 0,63.452 0,95.706 -8.277,0 -15.852,0 -25.235,0 0,-12.084 0,-23.638 0,-35.994 -17.265,0 -32.736,0 -49.882,0 0,12.126 0,23.698 0,36.095 -8.839,0 -16.03,0 -24.531,0 0,-31.82 0,-63.481 0,-95.813 7.995,0 15.251,0 24.133,0 0.547,11.367 1.08,22.424 1.667,34.623 15.985,0 31.355,0 48.515,0 0,-11.446 0,-22.536 0,-34.617 z"
   id="path20"
   inkscape:label="H" />
        <path
   fill-rule="evenodd"
   clip-rule="evenodd"
   fill="#29abe2"
   d="m 1812.308,1191.923 c 0,8.689 0,15.456 0,23.433 -10.774,0.479 -20.902,0.925 -32.729,1.445 0,23.426 0,46.4 0,70.488 -9.771,0 -17.816,0 -27.658,0 0,-22.98 0,-45.908 0,-69.922 -11.864,-0.569 -22.054,-1.059 -33.472,-1.607 0,-7.912 0,-15.385 0,-23.837 31.38,0 62.169,0 93.859,0 z"
   id="path22"
   inkscape:label="T" />
    </g>

    <g
   id="text-8"
   inkscape:label="Think Ahead text - right"
   transform="translate(-330.543,-939.753)"
   inkscape:export-filename="think-ahead-text-right.png"
   inkscape:export-xdpi="96"
   inkscape:export-ydpi="96"
   style="display:none">
        <path
   fill-rule="evenodd"
   clip-rule="evenodd"
   fill="#29abe2"
   d="m 2608.435,1412.361 c 0,-38.167 0,-73.365 0,-109.567 21.349,0 41.238,0 62.187,0 0,93.433 0,185.997 0,279.668 -20.553,0 -40.424,0 -61.094,0 -0.612,-7.487 -1.16,-14.153 -1.937,-23.646 -25.614,23.374 -53.579,32.157 -85.697,23.133 -21.78,-6.121 -38.803,-19.292 -51.997,-37.197 -29.473,-39.995 -26.431,-94.736 6.671,-130.772 17.603,-19.165 39.476,-28.717 65.283,-30.567 26.062,-1.869 46.027,10.748 66.584,28.948 z m -98.233,69.67 c -0.44,28.466 18.907,50.786 44.274,51.074 28.304,0.326 51.386,-20.724 52.226,-47.627 0.884,-28.289 -20.334,-51.25 -47.622,-51.536 -27.935,-0.292 -48.441,19.884 -48.878,48.089 z"
   id="path11-0"
   inkscape:label="d" />
        <path
   fill-rule="evenodd"
   clip-rule="evenodd"
   fill="#29abe2"
   d="m 2067.071,1520.65 c 14.036,7.691 28.612,15.68 43.19,23.668 -19.896,36.9 -84.111,52.724 -130.166,32.244 -49.23,-21.892 -71.603,-72.276 -53.966,-127.33 16.148,-50.406 71.824,-77.142 127.821,-63.24 51.135,12.693 80.33,60.189 71.132,118.082 -46.837,0 -94.017,0 -141.372,0 4.029,37.702 43.327,45.137 83.361,16.576 z m 1.257,-52.185 c -3.826,-24.777 -20.905,-38.089 -46.146,-37.455 -23.558,0.59 -39.666,14.873 -41.483,37.455 28.902,0 57.75,0 87.629,0 z"
   id="path17-2"
   inkscape:label="a" />
        <path
   fill-rule="evenodd"
   clip-rule="evenodd"
   fill="#29abe2"
   d="m 2326.23,1466.555 c 0.136,-12.847 -4.632,-21.313 -15.675,-26.697 -19.519,-9.52 -39.227,-7.97 -59.088,-1.814 -5.609,1.734 -10.995,4.193 -17.443,6.694 -11.689,-9.5 -23.445,-19.056 -36.613,-29.759 14.497,-14.232 31.797,-22.01 50.053,-27.322 25.088,-7.301 50.72,-7.352 76.189,-1.644 43.292,9.7 65.873,37.364 66.887,81.76 0.362,15.797 0.885,31.652 0.01,47.405 -1.24,22.289 0.687,42.206 30.535,49.225 -15.521,13.537 -30.251,21.767 -46.517,23.457 -18.844,1.959 -27.121,-15.266 -38.632,-27.952 -2.86,2.403 -5.799,4.698 -8.544,7.206 -31.457,28.729 -83.52,28.018 -115.11,-0.688 -32.421,-29.462 -23.773,-83.645 16.534,-98.816 31.923,-12.019 63.538,-11.805 97.416,-1.055 z m -0.681,35.346 c -10.586,-0.762 -20.38,-2.09 -30.156,-1.97 -7.77,0.094 -15.888,0.855 -23.182,3.31 -9.73,3.278 -17.771,9.808 -16.945,21.492 0.83,11.73 8.41,18.339 19.518,21.208 29.76,7.696 53.188,-11.836 50.765,-44.04 z"
   id="path15-4"
   inkscape:label="e" />
        <path
   fill-rule="evenodd"
   clip-rule="evenodd"
   fill="#29abe2"
   d="m 1861.686,1582.395 c -19.119,0 -38.087,0 -58.452,0 -0.25,-5.698 -0.667,-10.993 -0.683,-16.288 -0.098,-30.12 0.146,-60.241 -0.202,-90.357 -0.361,-31.34 -22.26,-48.259 -52.466,-39.5 -32.733,9.495 -36.522,20.854 -35.499,44.147 1.275,29.073 0.226,58.249 0.184,87.381 -0.01,4.792 0,9.584 0,15.176 -21.026,0 -40.122,0 -60.563,0 0,-93.419 0,-186.385 0,-280.324 19.828,0 39.276,0 60.297,0 0,33.92 0,67.312 0,103.263 5.426,-2.852 8.771,-4.236 11.716,-6.219 24.023,-16.155 50.651,-19.677 78.027,-13.403 32.687,7.49 54.408,29.513 56.837,62.329 3.258,44.025 0.806,88.473 0.806,133.795 z"
   id="path14-8"
   inkscape:label="h" />
        <path
   fill-rule="evenodd"
   clip-rule="evenodd"
   fill="#29abe2"
   d="m 1446.188,1312.641 c 16.073,0 31.292,0 48.989,0 36.649,88.928 73.556,178.481 111.198,269.814 -22.323,0 -42.593,0 -63.623,0 -6.008,-15.186 -11.945,-30.191 -17.929,-45.314 -37.688,0 -74.599,0 -112.279,0 -6.107,15.207 -12.115,30.163 -18.416,45.849 -20.883,0 -41.37,0 -64.75,0 36.211,-91.761 77.888,-179.619 116.81,-270.349 z m 24.541,97.983 c -1.168,0.067 -2.336,0.134 -3.502,0.198 -9.429,23.103 -18.859,46.204 -28.907,70.824 20.749,0 39.521,0 60.186,0 -9.654,-24.682 -18.716,-47.851 -27.777,-71.022 z"
   id="path12-3"
   inkscape:label="A" />
        <path
   fill-rule="evenodd"
   clip-rule="evenodd"
   fill="#29abe2"
   d="m 2289.155,1251.961 c -4.656,4.301 -8.566,7.914 -12.337,11.398 -0.367,7.921 -0.705,15.248 -1.098,23.716 -8.119,0 -15.697,0 -24.501,0 0,-31.244 0,-62.485 0,-94.929 7.354,0 14.466,0 23.399,0 0,13.182 0,26.697 0,38.633 14.648,-13.269 29.241,-26.486 43.701,-39.584 10.168,0 19.33,0 31.629,0 -14.72,16.277 -27.754,30.689 -41.514,45.904 13.094,15.996 26.318,32.148 41.16,50.277 -11.359,0 -20.339,0 -31.742,0 -8.48,-10.468 -18.285,-22.567 -28.697,-35.415 z"
   id="path21-9"
   inkscape:label="K" />
        <path
   fill-rule="evenodd"
   clip-rule="evenodd"
   fill="#29abe2"
   d="m 2095.016,1287.334 c 0,-33.093 0,-63.589 0,-95.228 6.754,0 12.895,0 18.916,0 18.597,17.856 37.404,35.915 58.016,55.708 0,-18.828 0,-36.49 0,-55.293 9.189,0 16.256,0 24.776,0 0,31.07 0,62.352 0,95.482 -6.214,0.277 -12.824,0.572 -16.839,0.75 -20.839,-19.338 -39.918,-37.041 -60.072,-55.745 0,17.919 0,35.734 0,54.325 -9.366,10e-4 -16.85,10e-4 -24.797,10e-4 z"
   id="path19-0"
   inkscape:label="N" />
        <path
   fill-rule="evenodd"
   clip-rule="evenodd"
   fill="#29abe2"
   d="m 2037.219,1288.395 c -8.582,0 -15.886,0 -24.628,0 0,-31.936 0,-63.497 0,-95.955 7.983,0 15.666,0 24.628,0 0,31.317 0,62.9 0,95.955 z"
   id="path23-5"
   inkscape:label="I" />
        <path
   fill-rule="evenodd"
   clip-rule="evenodd"
   fill="#29abe2"
   d="m 1931.717,1191.751 c 9.999,0 17.217,0 25.333,0 0,32.175 0,63.452 0,95.706 -8.277,0 -15.852,0 -25.235,0 0,-12.084 0,-23.638 0,-35.994 -17.265,0 -32.736,0 -49.882,0 0,12.126 0,23.698 0,36.095 -8.839,0 -16.03,0 -24.531,0 0,-31.82 0,-63.481 0,-95.813 7.995,0 15.251,0 24.133,0 0.547,11.367 1.08,22.424 1.667,34.623 15.985,0 31.355,0 48.515,0 0,-11.446 0,-22.536 0,-34.617 z"
   id="path20-2"
   inkscape:label="H" />
        <path
   fill-rule="evenodd"
   clip-rule="evenodd"
   fill="#29abe2"
   d="m 1812.308,1191.923 c 0,8.689 0,15.456 0,23.433 -10.774,0.479 -20.902,0.925 -32.729,1.445 0,23.426 0,46.4 0,70.488 -9.771,0 -17.816,0 -27.658,0 0,-22.98 0,-45.908 0,-69.922 -11.864,-0.569 -22.054,-1.059 -33.472,-1.607 0,-7.912 0,-15.385 0,-23.837 31.38,0 62.169,0 93.859,0 z"
   id="path22-2"
   inkscape:label="T" />
    </g>

    <g
   id="g71"
   inkscape:label="Think Ahead text - left"
   transform="translate(-2771.787,-939.753)"
   inkscape:export-filename="think-ahead-with-text.png"
   inkscape:export-xdpi="96"
   inkscape:export-ydpi="96"
   style="display:none">
        <path
   fill-rule="evenodd"
   clip-rule="evenodd"
   fill="#29abe2"
   d="m 2608.435,1412.361 c 0,-38.167 0,-73.365 0,-109.567 21.349,0 41.238,0 62.187,0 0,93.433 0,185.997 0,279.668 -20.553,0 -40.424,0 -61.094,0 -0.612,-7.487 -1.16,-14.153 -1.937,-23.646 -25.614,23.374 -53.579,32.157 -85.697,23.133 -21.78,-6.121 -38.803,-19.292 -51.997,-37.197 -29.473,-39.995 -26.431,-94.736 6.671,-130.772 17.603,-19.165 39.476,-28.717 65.283,-30.567 26.062,-1.869 46.027,10.748 66.584,28.948 z m -98.233,69.67 c -0.44,28.466 18.907,50.786 44.274,51.074 28.304,0.326 51.386,-20.724 52.226,-47.627 0.884,-28.289 -20.334,-51.25 -47.622,-51.536 -27.935,-0.292 -48.441,19.884 -48.878,48.089 z"
   id="path61"
   inkscape:label="d" />
        <path
   fill-rule="evenodd"
   clip-rule="evenodd"
   fill="#29abe2"
   d="m 2067.071,1520.65 c 14.036,7.691 28.612,15.68 43.19,23.668 -19.896,36.9 -84.111,52.724 -130.166,32.244 -49.23,-21.892 -71.603,-72.276 -53.966,-127.33 16.148,-50.406 71.824,-77.142 127.821,-63.24 51.135,12.693 80.33,60.189 71.132,118.082 -46.837,0 -94.017,0 -141.372,0 4.029,37.702 43.327,45.137 83.361,16.576 z m 1.257,-52.185 c -3.826,-24.777 -20.905,-38.089 -46.146,-37.455 -23.558,0.59 -39.666,14.873 -41.483,37.455 28.902,0 57.75,0 87.629,0 z"
   id="path63"
   inkscape:label="a" />
        <path
   fill-rule="evenodd"
   clip-rule="evenodd"
   fill="#29abe2"
   d="m 2326.23,1466.555 c 0.136,-12.847 -4.632,-21.313 -15.675,-26.697 -19.519,-9.52 -39.227,-7.97 -59.088,-1.814 -5.609,1.734 -10.995,4.193 -17.443,6.694 -11.689,-9.5 -23.445,-19.056 -36.613,-29.759 14.497,-14.232 31.797,-22.01 50.053,-27.322 25.088,-7.301 50.72,-7.352 76.189,-1.644 43.292,9.7 65.873,37.364 66.887,81.76 0.362,15.797 0.885,31.652 0.01,47.405 -1.24,22.289 0.687,42.206 30.535,49.225 -15.521,13.537 -30.251,21.767 -46.517,23.457 -18.844,1.959 -27.121,-15.266 -38.632,-27.952 -2.86,2.403 -5.799,4.698 -8.544,7.206 -31.457,28.729 -83.52,28.018 -115.11,-0.688 -32.421,-29.462 -23.773,-83.645 16.534,-98.816 31.923,-12.019 63.538,-11.805 97.416,-1.055 z m -0.681,35.346 c -10.586,-0.762 -20.38,-2.09 -30.156,-1.97 -7.77,0.094 -15.888,0.855 -23.182,3.31 -9.73,3.278 -17.771,9.808 -16.945,21.492 0.83,11.73 8.41,18.339 19.518,21.208 29.76,7.696 53.188,-11.836 50.765,-44.04 z"
   id="path64"
   inkscape:label="e" />
        <path
   fill-rule="evenodd"
   clip-rule="evenodd"
   fill="#29abe2"
   d="m 1861.686,1582.395 c -19.119,0 -38.087,0 -58.452,0 -0.25,-5.698 -0.667,-10.993 -0.683,-16.288 -0.098,-30.12 0.146,-60.241 -0.202,-90.357 -0.361,-31.34 -22.26,-48.259 -52.466,-39.5 -32.733,9.495 -36.522,20.854 -35.499,44.147 1.275,29.073 0.226,58.249 0.184,87.381 -0.01,4.792 0,9.584 0,15.176 -21.026,0 -40.122,0 -60.563,0 0,-93.419 0,-186.385 0,-280.324 19.828,0 39.276,0 60.297,0 0,33.92 0,67.312 0,103.263 5.426,-2.852 8.771,-4.236 11.716,-6.219 24.023,-16.155 50.651,-19.677 78.027,-13.403 32.687,7.49 54.408,29.513 56.837,62.329 3.258,44.025 0.806,88.473 0.806,133.795 z"
   id="path65"
   inkscape:label="h" />
        <path
   fill-rule="evenodd"
   clip-rule="evenodd"
   fill="#29abe2"
   d="m 1446.188,1312.641 c 16.073,0 31.292,0 48.989,0 36.649,88.928 73.556,178.481 111.198,269.814 -22.323,0 -42.593,0 -63.623,0 -6.008,-15.186 -11.945,-30.191 -17.929,-45.314 -37.688,0 -74.599,0 -112.279,0 -6.107,15.207 -12.115,30.163 -18.416,45.849 -20.883,0 -41.37,0 -64.75,0 36.211,-91.761 77.888,-179.619 116.81,-270.349 z m 24.541,97.983 c -1.168,0.067 -2.336,0.134 -3.502,0.198 -9.429,23.103 -18.859,46.204 -28.907,70.824 20.749,0 39.521,0 60.186,0 -9.654,-24.682 -18.716,-47.851 -27.777,-71.022 z"
   id="path66"
   inkscape:label="A" />
        <path
   fill-rule="evenodd"
   clip-rule="evenodd"
   fill="#29abe2"
   d="m 2289.155,1251.961 c -4.656,4.301 -8.566,7.914 -12.337,11.398 -0.367,7.921 -0.705,15.248 -1.098,23.716 -8.119,0 -15.697,0 -24.501,0 0,-31.244 0,-62.485 0,-94.929 7.354,0 14.466,0 23.399,0 0,13.182 0,26.697 0,38.633 14.648,-13.269 29.241,-26.486 43.701,-39.584 10.168,0 19.33,0 31.629,0 -14.72,16.277 -27.754,30.689 -41.514,45.904 13.094,15.996 26.318,32.148 41.16,50.277 -11.359,0 -20.339,0 -31.742,0 -8.48,-10.468 -18.285,-22.567 -28.697,-35.415 z"
   id="path67"
   inkscape:label="K" />
        <path
   fill-rule="evenodd"
   clip-rule="evenodd"
   fill="#29abe2"
   d="m 2095.016,1287.334 c 0,-33.093 0,-63.589 0,-95.228 6.754,0 12.895,0 18.916,0 18.597,17.856 37.404,35.915 58.016,55.708 0,-18.828 0,-36.49 0,-55.293 9.189,0 16.256,0 24.776,0 0,31.07 0,62.352 0,95.482 -6.214,0.277 -12.824,0.572 -16.839,0.75 -20.839,-19.338 -39.918,-37.041 -60.072,-55.745 0,17.919 0,35.734 0,54.325 -9.366,10e-4 -16.85,10e-4 -24.797,10e-4 z"
   id="path68"
   inkscape:label="N" />
        <path
   fill-rule="evenodd"
   clip-rule="evenodd"
   fill="#29abe2"
   d="m 2037.219,1288.395 c -8.582,0 -15.886,0 -24.628,0 0,-31.936 0,-63.497 0,-95.955 7.983,0 15.666,0 24.628,0 0,31.317 0,62.9 0,95.955 z"
   id="path69"
   inkscape:label="I" />
        <path
   fill-rule="evenodd"
   clip-rule="evenodd"
   fill="#29abe2"
   d="m 1931.717,1191.751 c 9.999,0 17.217,0 25.333,0 0,32.175 0,63.452 0,95.706 -8.277,0 -15.852,0 -25.235,0 0,-12.084 0,-23.638 0,-35.994 -17.265,0 -32.736,0 -49.882,0 0,12.126 0,23.698 0,36.095 -8.839,0 -16.03,0 -24.531,0 0,-31.82 0,-63.481 0,-95.813 7.995,0 15.251,0 24.133,0 0.547,11.367 1.08,22.424 1.667,34.623 15.985,0 31.355,0 48.515,0 0,-11.446 0,-22.536 0,-34.617 z"
   id="path70"
   inkscape:label="H" />
        <path
   fill-rule="evenodd"
   clip-rule="evenodd"
   fill="#29abe2"
   d="m 1812.308,1191.923 c 0,8.689 0,15.456 0,23.433 -10.774,0.479 -20.902,0.925 -32.729,1.445 0,23.426 0,46.4 0,70.488 -9.771,0 -17.816,0 -27.658,0 0,-22.98 0,-45.908 0,-69.922 -11.864,-0.569 -22.054,-1.059 -33.472,-1.607 0,-7.912 0,-15.385 0,-23.837 31.38,0 62.169,0 93.859,0 z"
   id="path71"
   inkscape:label="T" />
    </g>

    <g
   id="g74"
   inkscape:label="Think Ahead text - integrated"
   style="display:inline"
   inkscape:export-filename="./think-ahead-text-integrated.png"
   inkscape:export-xdpi="96"
   inkscape:export-ydpi="96"
   transform="translate(-1.165)"><g
     id="g73"
     transform="translate(0,17.886109)"
     inkscape:label="-head"><path
       fill-rule="evenodd"
       clip-rule="evenodd"
       fill="#29abe2"
       d="m 2630.8692,426.55042 c 0,-66.81532 0,-128.4331 0,-191.80848 37.3737,0 72.1915,0 108.8649,0 0,163.56423 0,325.60718 0,489.58806 -35.9802,0 -70.7664,0 -106.9514,0 -1.0714,-13.10678 -2.0307,-24.77631 -3.391,-41.3948 -44.8399,40.91863 -93.7956,56.29419 -150.0215,40.49674 -38.1282,-10.71545 -67.9287,-33.77266 -91.0262,-65.11724 -51.5956,-70.01542 -46.2702,-165.84527 11.6783,-228.93005 30.8159,-33.55033 69.1068,-50.27211 114.2847,-53.51073 45.6243,-3.27188 80.5751,18.8155 116.5622,50.6765 z m -171.9671,121.96462 c -0.7702,49.83271 33.0987,88.9062 77.5063,89.41037 49.5491,0.5707 89.9565,-36.27953 91.4271,-83.37604 1.5475,-49.52285 -35.5968,-89.71848 -83.3673,-90.21915 -48.9032,-0.51118 -84.8011,34.80902 -85.5661,84.18482 z"
       id="path11-7"
       inkscape:label="d"
       style="stroke-width:1.7506" /><path
       fill-rule="evenodd"
       clip-rule="evenodd"
       fill="#29abe2"
       d="m 1683.155,616.12163 c 24.5715,13.4639 50.0883,27.44948 75.6086,41.43331 -34.83,64.59731 -147.2451,92.29887 -227.8692,56.44649 -86.1822,-38.32423 -125.3485,-126.52669 -94.4731,-222.90447 28.2688,-88.24097 125.7354,-135.04513 223.764,-110.70823 89.5172,22.22043 140.6261,105.36714 124.524,206.71488 -81.9931,0 -164.5866,0 -247.4864,0 7.0531,66.00129 75.8484,79.01704 145.9321,29.01802 z m 2.2005,-91.35529 c -6.6978,-43.37473 -36.5964,-66.67878 -80.7834,-65.56889 -41.2407,1.03285 -69.4395,26.03674 -72.6203,65.56889 50.596,0 101.0974,0 153.4037,0 z"
       id="path17-4"
       inkscape:label="a"
       style="stroke-width:1.7506" /><path
       fill-rule="evenodd"
       clip-rule="evenodd"
       fill="#29abe2"
       d="m 2136.8399,521.42268 c 0.2381,-22.49001 -8.1088,-37.31063 -27.4407,-46.73589 -34.1701,-16.66575 -68.671,-13.95231 -103.4397,-3.17559 -9.8192,3.03555 -19.2479,7.34028 -30.5358,11.71854 -20.4628,-16.63074 -41.043,-33.35952 -64.0949,-52.09624 25.3785,-24.9146 55.664,-38.5308 87.623,-47.83001 43.9192,-12.78116 88.7907,-12.87045 133.3768,-2.878 75.7872,16.98087 115.3176,65.40959 117.0927,143.12943 0.6337,27.6543 1.5493,55.41013 0.017,82.98741 -2.1708,39.01922 1.2027,73.88601 53.4547,86.1735 -27.1711,23.69793 -52.9575,38.10541 -81.4329,41.06393 -32.9884,3.42944 -47.4781,-26.72473 -67.6293,-48.9329 -5.0068,4.20671 -10.1518,8.22434 -14.9572,12.61486 -55.0688,50.29312 -146.2105,49.04844 -201.5121,-1.20442 -56.7563,-51.57631 -41.6171,-146.42931 28.9445,-172.98773 55.8846,-21.04052 111.2299,-20.66589 170.5369,-1.84689 z m -1.1922,61.87687 c -18.5319,-1.33396 -35.6773,-3.65876 -52.7912,-3.44869 -13.6022,0.16456 -27.8136,1.49677 -40.5825,5.7945 -17.0334,5.73848 -31.11,17.16993 -29.664,37.62399 1.453,20.53459 14.7226,32.10434 34.1683,37.12682 52.098,13.47265 93.1112,-20.72015 88.8694,-77.09662 z"
       id="path15-49"
       inkscape:label="e"
       style="stroke-width:1.7506" /><path
       fill-rule="evenodd"
       clip-rule="evenodd"
       fill="#29abe2"
       d="m 1323.6071,724.21271 c -33.4698,0 -66.6753,0 -102.3263,0 -0.4377,-9.97495 -1.1677,-19.2444 -1.1957,-28.51385 -0.1716,-52.72821 0.2556,-105.45816 -0.3536,-158.17937 -0.632,-54.86394 -38.9685,-84.48242 -91.8472,-69.14888 -57.3026,16.62199 -63.9356,36.50711 -62.1448,77.28394 2.2321,50.89532 0.3957,101.97096 0.3222,152.96957 -0.017,8.3889 0,16.7778 0,26.56718 -36.8083,0 -70.2378,0 -106.0219,0 0,-163.53973 0,-326.28642 0,-490.73646 34.71098,0 68.7567,0 105.5562,0 0,59.3805 0,117.83669 0,180.77267 9.4988,-4.99272 15.3545,-7.41556 20.5101,-10.88701 42.0547,-28.28101 88.6698,-34.44664 136.5944,-23.46335 57.222,13.11203 95.2469,51.66559 99.4991,109.11343 5.7035,77.07036 1.411,154.88123 1.411,234.22213 z"
       id="path14-1"
       inkscape:label="h"
       style="stroke-width:1.7506" /></g><g
     id="g72"
     transform="translate(0,17.886109)"
     inkscape:label="Think"><path
       fill-rule="evenodd"
       clip-rule="evenodd"
       fill="#29abe2"
       d="m 2071.9362,145.75346 c -8.1508,7.52935 -14.9956,13.85428 -21.5972,19.95339 -0.6424,13.86654 -1.2341,26.69322 -1.9221,41.51734 -14.2132,0 -27.4793,0 -42.8916,0 0,-54.69589 0,-109.386525 0,-166.183138 12.874,0 25.3243,0 40.9624,0 0,23.076469 0,46.735889 0,67.631108 25.6429,-23.228775 51.1894,-46.366515 76.5032,-69.295933 17.8001,0 33.8392,0 55.3698,0 -25.7689,28.49459 -48.5862,53.724302 -72.6746,80.359753 22.9225,28.00267 46.0725,56.27843 72.0549,88.01514 -19.8851,0 -35.6055,0 -55.5677,0 -14.8451,-18.32533 -32.0098,-39.50589 -50.2371,-61.99766 z"
       id="path21-5"
       inkscape:label="K"
       style="stroke-width:1.7506" /><path
       fill-rule="evenodd"
       clip-rule="evenodd"
       fill="#29abe2"
       d="m 1732.0756,207.67759 c 0,-57.93275 0,-111.319186 0,-166.706562 11.8236,0 22.5741,0 33.1145,0 32.556,31.258794 65.4796,62.872962 101.563,97.522672 0,-32.96038 0,-63.879555 0,-96.796171 16.0863,0 28.4579,0 43.373,0 0,54.391282 0,109.153691 0,167.151221 -10.8782,0.48492 -22.4497,1.00134 -29.4784,1.31295 -36.4809,-33.85319 -69.8806,-64.84414 -105.1623,-97.58745 0,31.36909 0,62.5561 0,95.10159 -16.3962,0.002 -29.4977,0.002 -43.4098,0.002 z"
       id="path19-5"
       inkscape:label="N"
       style="stroke-width:1.7506" /><path
       fill-rule="evenodd"
       clip-rule="evenodd"
       fill="#29abe2"
       d="m 1630.8959,209.53498 c -15.0236,0 -27.8101,0 -43.1138,0 0,-55.9073 0,-111.158129 0,-167.97925 13.975,0 27.4249,0 43.1138,0 0,54.823681 0,110.11302 0,167.97925 z"
       id="path23-8"
       inkscape:label="I"
       style="stroke-width:1.7506" /><path
       fill-rule="evenodd"
       clip-rule="evenodd"
       fill="#29abe2"
       d="m 1446.2037,40.349563 c 17.5043,0 30.1401,0 44.348,0 0,56.3257 0,111.079357 0,167.543357 -14.4897,0 -27.7505,0 -44.1765,0 0,-21.15431 0,-41.38079 0,-63.01126 -30.2242,0 -57.3078,0 -87.3236,0 0,21.22783 0,41.48582 0,63.18807 -15.4736,0 -28.0622,0 -42.9441,0 0,-55.70424 0,-111.130125 0,-167.73067 13.9961,0 26.6985,0 42.2473,0 0.9576,19.899121 1.8907,39.255555 2.9183,60.61118 27.9834,0 54.8902,0 84.9306,0 0,-20.03742 0,-39.451624 0,-60.600677 z"
       id="path20-29"
       inkscape:label="H"
       style="stroke-width:1.7506" /><path
       fill-rule="evenodd"
       clip-rule="evenodd"
       fill="#29abe2"
       d="m 1237.1657,40.650667 c 0,15.211003 0,27.057344 0,41.021916 -18.861,0.838539 -36.5911,1.619309 -57.2955,2.529623 0,41.009664 0,81.228054 0,123.396614 -17.1052,0 -31.1888,0 -48.4182,0 0,-40.2289 0,-80.36676 0,-122.405772 -20.7692,-0.996094 -38.6078,-1.85389 -58.5962,-2.813221 0,-13.850783 0,-26.93305 0,-41.72916 54.9339,0 108.8333,0 164.3099,0 z"
       id="path22-8"
       inkscape:label="T"
       style="stroke-width:1.7506" /></g></g>

    <g
   id="logo"
   inkscape:label="Logo"
   inkscape:export-filename="./think-ahead-logo-only.png"
   inkscape:export-xdpi="96"
   inkscape:export-ydpi="96"
   style="display:inline"
   transform="translate(-2.9120009)"><path
     id="flash"
     style="display:inline;fill:#24bc77;fill-opacity:1;stroke:none;stroke-width:46.3332;stroke-dasharray:none;stroke-opacity:0.497191"
     inkscape:label="Flash"
     d="m 49.866142,548.00977 -40.7207036,75 H 137.24505 l 40.7207,-75 z" /><path
     id="circle-bottom"
     style="color:#000000;display:inline;fill:#1c759c;fill-opacity:1;stroke:none;stroke-opacity:1;-inkscape-stroke:none"
     inkscape:label="Circle bottom"
     d="m 307.5982,653.15289 -38.46289,70.84375 c 53.7444,40.12571 120.25104,64.01367 192.22852,64.01367 70.92486,0 136.5402,-23.19289 189.86718,-62.25976 l -38.39062,-70.70508 c -41.44053,33.12552 -94.02416,52.94922 -151.47656,52.94922 -58.52598,0 -111.98162,-20.58843 -153.76563,-54.8418 z" /><path
     id="circle-top-right"
     style="color:#000000;display:inline;fill:#1c759c;fill-opacity:1;-inkscape-stroke:none"
     inkscape:label="Circle top right"
     d="m 510.69141,146.95312 53.66992,98.84961 c 26.80211,12.52361 94.40153,51.53081 125.1875,137.20704 h 25.13086 V 266.43359 C 665.21734,203.66443 593.01734,159.67792 510.69141,146.95312 Z"
     sodipodi:nodetypes="cccccc" /><path
     id="circle-top-left"
     style="color:#000000;display:inline;fill:#1c759c;fill-opacity:1;-inkscape-stroke:none"
     d="M 504.71466,34.399626 C 379.37293,55.236785 278.13636,148.78179 245.95294,269.99924 h 83.53515 c 21.25852,-59.15669 64.79052,-107.45291 120.58789,-134.9668 z"
     transform="translate(-96.241999,113.01053)"
     inkscape:label="Circle top left"
     sodipodi:nodetypes="ccccc" /><path
     id="a-right"
     style="display:inline;fill:#24bc77;fill-opacity:1;stroke:none;stroke-width:126.119;stroke-dasharray:none;stroke-opacity:0.497191"
     inkscape:label="A right"
     d="m 459.70722,111.991 -14.00977,25.80274 h -0.004 l -34.34766,63.26172 0.002,0.002 -0.002,0.002 302.40049,556.95107 h 96.7207 L 473.71894,137.79374 h -0.002 z" /><path
     id="a-left"
     style="display:inline;fill:#24bc77;fill-opacity:1;stroke:none;stroke-width:159.743"
     inkscape:label="A left"
     d="M 459.70703,111.99023 312.55469,383.00977 h 96.7207 l 98.79102,-181.95118 -0.002,-0.002 0.002,-0.002 z M 222.96875,548.00977 108.94531,758.01172 h 96.72071 L 319.6875,548.00977 Z"
     sodipodi:nodetypes="cccccccccccc" /><path
     id="a-bar"
     style="display:inline;fill:#24bc77;fill-opacity:1;stroke:none;stroke-width:115.928;stroke-dasharray:none;stroke-opacity:0.497191"
     inkscape:label="A horizontal bar"
     d="m 236.81055,548.00977 v 75 h 358.63672 l -40.72266,-75 z"
     sodipodi:nodetypes="ccccc" /><path
     id="arrow-bar"
     style="fill:#29abe2;fill-opacity:1;stroke:none;stroke-width:72.9109;stroke-dasharray:none;stroke-opacity:0.497191"
     inkscape:label="Arrow bar"
     d="m 115.02044,428.00977 -40.720705,75 H 530.29388 l -40.72266,-75 z" /><path
     id="arrowhead-bar"
     style="fill:#29abe2;fill-opacity:1;stroke:none;stroke-width:72.9109;stroke-dasharray:none;stroke-opacity:0.497191"
     inkscape:label="Arrowhead bar"
     d="m 676.29102,428.00977 40.72265,75 h 106.74414 v -75 z" /><path
     id="path4"
     style="display:inline;fill:#29abe2;fill-opacity:1;stroke-width:114.369;stroke-opacity:0.497191"
     inkscape:label="Arrowhead in line with circle"
     inkscape:transform-center-x="-26.666689"
     inkscape:transform-center-y="3.9096342e-06"
     d="m 842.92189,188.42502 v 256.21289 l 24.5039,45.13281 125.4961,-137.27148 z"
     transform="translate(-96.242308,113.01053)" /><path
     id="arrowhead"
     style="display:none;fill:#29abe2;fill-opacity:1;stroke-width:114.369;stroke-opacity:0.497191"
     inkscape:label="Arrowhead original width"
     inkscape:transform-center-x="-26.666689"
     inkscape:transform-center-y="3.9096342e-06"
     d="m 841.17559,202.49924 v 242.13867 l 20.36133,37.5 129.63867,-129.63867 z"
     transform="translate(-94.494998,113.01053)" /></g>

     <g
   id="eyes-bottom"
   inkscape:label="Eyes (bottom)"
   style="display:none"
   transform="translate(-2.9120009,14.99452)"><circle
     style="fill:#ffffff;fill-opacity:1;stroke:none;stroke-width:66.6666"
     id="eye-bottom-right"
     cx="661.34314"
     cy="568.27136"
     r="33.271351"
     inkscape:label="Right eye" /><circle
     style="display:inline;fill:#000000;fill-opacity:1;stroke:none;stroke-width:80"
     id="eye-bottom-right-pupil"
     cx="670.94812"
     cy="563.06451"
     r="21.015503"
     inkscape:label="Right pupil" /><circle
     style="fill:#ffffff;fill-opacity:1;stroke:none;stroke-width:111.247"
     id="eye-bottom-right-gleam"
     cx="662.20154"
     cy="552.57819"
     r="3.1391785"
     inkscape:label="Right gleam" /><circle
     style="display:inline;fill:#ffffff;fill-opacity:1;stroke:none;stroke-width:66.6666"
     id="eye-bottom-left"
     cx="344.53268"
     cy="568.27136"
     r="33.271351"
     inkscape:label="Left eye" /><circle
     style="display:inline;fill:#000000;fill-opacity:1;stroke:none;stroke-width:80"
     id="eye-bottom-left-pupil"
     cx="334.33014"
     cy="572.40533"
     r="21.015503"
     inkscape:label="Left pupil" /><circle
     style="display:inline;fill:#ffffff;fill-opacity:1;stroke:none;stroke-width:111.247"
     id="eye-bottom-left-gleam"
     cx="323.49832"
     cy="562.98828"
     r="3.1391785"
     inkscape:label="Left gleam" /><path
     id="eyes-smile"
     style="color:#000000;display:inline;fill:#1c759c;fill-opacity:1;stroke:#1c759c;stroke-opacity:1;-inkscape-stroke:none"
     inkscape:label="Smile"
     d="m 307.5982,653.15289 9.6891,39.5872 c 22.48785,57.86591 72.09905,95.27022 144.07653,95.27022 70.92486,0 135.91532,-52.74309 147.33284,-88.51579 l 4.14372,-44.44905 c -41.44053,33.12552 -94.02416,52.94922 -151.47656,52.94922 -58.52598,0 -111.98162,-20.58843 -153.76563,-54.8418 z"
     transform="translate(0,-14.99452)"
     sodipodi:nodetypes="ccsccsc" /></g>
<path
   style="font-weight:500;font-size:400px;font-family:Futura;-inkscape-font-specification:'Futura Medium';baseline-shift:baseline;white-space:pre;display:inline;overflow:visible;vector-effect:none;fill:#29abe2;enable-background:accumulate;stop-color:#000000"
   d="M 1118.9283,486.01813 V 635.23688 H 1074.983 V 486.01813 h -18.75 v -41.01562 h 18.75 v -69.72656 h 43.9453 v 69.72656 h 34.1797 v 41.01562 z m 72.0703,-180.66403 h 43.9453 v 155.46872 q 23.4375,-21.09375 51.7579,-21.09375 32.2265,0 51.5625,20.89844 16.4062,18.16406 16.4062,58.00781 v 116.60156 h -43.9453 v -112.5 q 0,-22.85156 -8.2031,-33.00781 -8.0078,-10.35156 -25.9766,-10.35156 -23.0469,0 -32.4219,14.25781 -9.1797,14.45313 -9.1797,49.60938 v 91.99218 h -43.9453 z m 263.2813,139.64841 v 190.23437 h -43.9453 V 445.00251 Z m -50.586,-79.10156 q 0,-11.52344 8.3985,-19.92188 8.3984,-8.39844 20.1172,-8.39844 11.914,0 20.3125,8.39844 8.3984,8.20313 8.3984,20.11719 0,11.91406 -8.3984,20.3125 -8.2032,8.39844 -20.1172,8.39844 -11.9141,0 -20.3125,-8.39844 -8.3985,-8.39844 -8.3985,-20.50781 z m 106.25,79.10156 h 44.1407 v 17.57812 q 23.0468,-22.85156 51.9531,-22.85156 33.2031,0 51.7578,20.89844 16.0156,17.77344 16.0156,58.00781 v 116.60156 h -44.1406 v -106.25 q 0,-28.125 -7.8125,-38.86718 -7.6172,-10.9375 -27.7344,-10.9375 -21.875,0 -31.0547,14.45312 -8.9843,14.25781 -8.9843,49.80469 v 91.79687 h -44.1407 z M 1773.2252,305.3541 v 201.17185 l 61.914,-61.52344 h 58.9844 l -82.6172,79.88281 88.6719,110.35156 h -57.0313 l -62.8906,-80.27343 -7.0312,7.03125 v 73.24218 h -43.9454 V 305.3541 Z m 126.7578,214.06247 h 87.1093 v 38.28125 h -87.1093 z m 255.0781,-74.41406 h 44.1406 v 190.23437 h -44.1406 v -19.92187 q -27.1484,25.39062 -58.3984,25.39062 -39.4532,0 -65.2344,-28.51562 -25.586,-29.10156 -25.586,-72.65625 0,-42.77344 25.586,-71.28906 25.5859,-28.51563 64.0625,-28.51563 33.2031,0 59.5703,27.34375 z m -104.2969,94.53125 q 0,27.34375 14.6485,44.53125 15.039,17.38281 37.8906,17.38281 24.414,0 39.4531,-16.79687 15.0391,-17.38282 15.0391,-44.14063 0,-26.75781 -15.0391,-44.14062 -15.0391,-16.99219 -39.0625,-16.99219 -22.6562,0 -37.8906,17.1875 -15.0391,17.38281 -15.0391,42.96875 z M 2254.6705,305.3541 h 43.9453 v 155.46872 q 23.4375,-21.09375 51.7578,-21.09375 32.2266,0 51.5625,20.89844 16.4062,18.16406 16.4062,58.00781 v 116.60156 h -43.9453 v -112.5 q 0,-22.85156 -8.2031,-33.00781 -8.0078,-10.35156 -25.9766,-10.35156 -23.0468,0 -32.4218,14.25781 -9.1797,14.45313 -9.1797,49.60938 v 91.99218 h -43.9453 z m 392.5781,245.11716 h -136.3281 q 1.7578,23.4375 15.2343,37.30469 13.4766,13.67187 34.5704,13.67187 16.4062,0 27.1484,-7.8125 10.5469,-7.8125 24.0234,-28.90625 l 37.1094,20.70313 q -8.5937,14.64843 -18.1641,25.19531 -9.5703,10.35156 -20.5078,17.1875 -10.9375,6.64062 -23.6328,9.76562 -12.6953,3.125 -27.539,3.125 -42.5782,0 -68.3594,-27.34375 -25.7813,-27.53906 -25.7813,-73.04687 0,-45.11719 25,-73.04688 25.1953,-27.53906 66.7969,-27.53906 41.9922,0 66.4063,26.75781 24.2187,26.5625 24.2187,73.63282 z m -45.1172,-35.9375 q -9.1797,-35.15625 -44.3359,-35.15625 -8.0078,0 -15.0391,2.53906 -7.0312,2.34375 -12.8906,7.03125 -5.6641,4.49219 -9.7656,10.9375 -4.1016,6.44531 -6.25,14.64844 z m 233.3984,-69.53125 h 44.1407 v 190.23437 h -44.1407 v -19.92187 q -27.1484,25.39062 -58.3984,25.39062 -39.4531,0 -65.2344,-28.51562 -25.5859,-29.10156 -25.5859,-72.65625 0,-42.77344 25.5859,-71.28906 25.586,-28.51563 64.0625,-28.51563 33.2032,0 59.5703,27.34375 z m -104.2968,94.53125 q 0,27.34375 14.6484,44.53125 15.0391,17.38281 37.8906,17.38281 24.4141,0 39.4532,-16.79687 15.039,-17.38282 15.039,-44.14063 0,-26.75781 -15.039,-44.14062 -15.0391,-16.99219 -39.0625,-16.99219 -22.6563,0 -37.8907,17.1875 -15.039,17.38281 -15.039,42.96875 z M 3075.3736,305.3541 h 44.1406 v 329.88278 h -44.1406 v -19.92187 q -25.9766,25.39062 -58.7891,25.39062 -39.0625,0 -64.8437,-28.51562 -25.586,-29.10156 -25.586,-72.65625 0,-42.57813 25.586,-71.09375 25.3906,-28.71094 63.8672,-28.71094 33.3984,0 59.7656,27.34375 z m -104.2969,234.17966 q 0,27.34375 14.6485,44.53125 15.039,17.38281 37.8906,17.38281 24.414,0 39.4531,-16.79687 15.0391,-17.38282 15.0391,-44.14063 0,-26.75781 -15.0391,-44.14062 -15.0391,-16.99219 -39.0625,-16.99219 -22.6562,0 -37.8906,17.1875 -15.0391,17.38281 -15.0391,42.96875 z m 210.7422,73.82812 q 0,-10.9375 8.0078,-18.94531 8.0078,-8.00781 19.1406,-8.00781 11.1329,0 19.1407,8.00781 8.0078,8.00781 8.0078,19.14063 0,11.32812 -8.0078,19.33593 -7.8125,7.8125 -19.1407,7.8125 -11.5234,0 -19.3359,-7.8125 -7.8125,-7.8125 -7.8125,-19.53125 z M 3343.733,486.01813 v 149.21875 h -43.9453 V 486.01813 h -18.75 v -41.01562 h 18.75 v -69.72656 h 43.9453 v 69.72656 h 34.1797 v 41.01562 z m 240.8203,64.45313 h -136.3281 q 1.7578,23.4375 15.2343,37.30469 13.4766,13.67187 34.5703,13.67187 16.4063,0 27.1485,-7.8125 10.5469,-7.8125 24.0234,-28.90625 l 37.1094,20.70313 q -8.5938,14.64843 -18.1641,25.19531 -9.5703,10.35156 -20.5078,17.1875 -10.9375,6.64062 -23.6328,9.76562 -12.6953,3.125 -27.5391,3.125 -42.5781,0 -68.3593,-27.34375 -25.7813,-27.53906 -25.7813,-73.04687 0,-45.11719 25,-73.04688 25.1953,-27.53906 66.7969,-27.53906 41.9922,0 66.4062,26.75781 24.2188,26.5625 24.2188,73.63282 z m -45.1172,-35.9375 q -9.1797,-35.15625 -44.3359,-35.15625 -8.0079,0 -15.0391,2.53906 -7.0313,2.34375 -12.8906,7.03125 -5.6641,4.49219 -9.7657,10.9375 -4.1015,6.44531 -6.25,14.64844 z m 241.2109,-61.32813 v 58.39844 q -15.039,-18.35937 -26.9531,-25.19531 -11.7187,-7.03125 -27.5391,-7.03125 -24.8046,0 -41.2109,17.38281 -16.4062,17.38281 -16.4062,43.55469 0,26.75781 15.8203,43.94531 16.0156,17.1875 40.8203,17.1875 15.8203,0 27.9297,-6.83594 11.7187,-6.64062 27.539,-25.78125 v 58.00782 q -26.7578,13.86718 -53.5156,13.86718 -44.1406,0 -73.8281,-28.51562 -29.6875,-28.71094 -29.6875,-71.28906 0,-42.57813 30.0781,-71.875 30.0781,-29.29688 73.8281,-29.29688 28.125,0 53.125,13.47656 z m 52.9297,-147.85153 h 43.9453 v 155.46872 q 23.4375,-21.09375 51.7578,-21.09375 32.2266,0 51.5625,20.89844 16.4063,18.16406 16.4063,58.00781 v 116.60156 h -43.9453 v -112.5 q 0,-22.85156 -8.2031,-33.00781 -8.0079,-10.35156 -25.9766,-10.35156 -23.0469,0 -32.4219,14.25781 -9.1797,14.45313 -9.1797,49.60938 v 91.99218 h -43.9453 z"
   id="path2"
   inkscape:label="Website" /></svg>
