<svg version="1.1" id="Layer_1" xmlns:x="ns_extend;" xmlns:i="ns_ai;" xmlns:graph="ns_graphs;" xmlns="http://www.w3.org/2000/svg" xmlns:xlink="http://www.w3.org/1999/xlink" x="0px" y="0px" viewBox="0 0 76.6 79.3" style="enable-background:new 0 0 76.6 79.3;" xml:space="preserve">
 <style type="text/css">
  .st0{fill-rule:evenodd;clip-rule:evenodd;fill:#FFFFFF;}
 </style>
 <metadata>
  <sfw xmlns="ns_sfw;">
   <slices>
   </slices>
   <sliceSourceBounds bottomLeftOrigin="true" height="79.3" width="76.6" x="11.1" y="-321.5">
   </sliceSourceBounds>
  </sfw>
 </metadata>
 <path class="st0" d="M45.9,0.8c0.6,0.1,1.1,0.5,1.3,1.1L47.3,2l1.9,9.9c2.6,1,5,2.3,7.2,4l0.8,0.6l9.7-3.3c0.6-0.3,1.3-0.1,1.8,0.5
	c3.4,3.8,6.1,8.3,7.7,13.1c0.2,0.5,0.1,1.2-0.3,1.6L76,28.5l-7.7,6.6c0.3,1.5,0.4,3.1,0.4,4.6c0,1.2-0.1,2.5-0.2,3.7l-0.1,0.9
	l7.7,6.6c0.6,0.4,0.8,1.1,0.5,1.7c-1.6,4.8-4.3,9.3-7.7,13.1c-0.4,0.5-1,0.7-1.6,0.5L67,66.1l-9.7-3.3c-2.1,1.7-4.5,3.1-7.1,4.2
	l-1,0.4l-1.9,9.9c-0.1,0.7-0.7,1.2-1.3,1.3c-2.5,0.5-5.1,0.7-7.7,0.7c-2.6,0-5.1-0.3-7.7-0.7c-0.6-0.1-1.1-0.5-1.3-1.1l-0.1-0.2
	l-1.9-9.9c-2.6-1-5.1-2.3-7.3-4l-0.7-0.6l-9.7,3.3c-0.6,0.3-1.3,0.1-1.8-0.5c-3.4-3.8-6.1-8.3-7.7-13.1C-0.1,52.1,0,51.4,0.4,51
	l0.2-0.1l7.7-6.6C8.1,42.8,8,41.2,8,39.7c0-1.2,0-2.5,0.2-3.7l0.1-0.9l-7.7-6.6c-0.6-0.4-0.8-1.1-0.5-1.7c1.6-4.8,4.3-9.3,7.7-13.1
	c0.4-0.5,1-0.7,1.6-0.5l0.2,0.1l9.7,3.3c2.2-1.8,4.6-3.2,7.2-4.3l0.9-0.4L29.3,2c0.1-0.7,0.7-1.2,1.3-1.3
	C35.7-0.3,40.9-0.3,45.9,0.8L45.9,0.8z M38.3,16.5C25.4,16.5,15,26.9,15,39.7s10.4,23.2,23.3,23.2s23.3-10.4,23.3-23.2
	S51.1,16.5,38.3,16.5L38.3,16.5z M53,36.4v-6.9H23.6v6.9h11.2V53h7V36.4C41.8,36.4,53,36.4,53,36.4z">
 </path>
</svg>