<?xml version="1.0" encoding="UTF-8" standalone="no"?>
<!-- Generator: Adobe Illustrator 16.0.0, SVG Export Plug-In . SVG Version: 6.00 Build 0)  -->

<svg
   version="1.1"
   id="Layer_1"
   x="0px"
   y="0px"
   width="904.73401"
   height="904.73401"
   viewBox="0 0 904.734 904.73399"
   enable-background="new 0 0 4000 2000"
   xml:space="preserve"
   sodipodi:docname="think-ahead.svg"
   inkscape:version="1.3.2 (091e20e, 2023-11-25)"
   inkscape:export-filename="think-ahead.png"
   inkscape:export-xdpi="96"
   inkscape:export-ydpi="96"
   xmlns:inkscape="http://www.inkscape.org/namespaces/inkscape"
   xmlns:sodipodi="http://sodipodi.sourceforge.net/DTD/sodipodi-0.dtd"
   xmlns="http://www.w3.org/2000/svg"
   xmlns:svg="http://www.w3.org/2000/svg"><defs
   id="defs28">
	
</defs><sodipodi:namedview
   id="namedview28"
   pagecolor="#ffffff"
   bordercolor="#000000"
   borderopacity="0.25"
   inkscape:showpageshadow="2"
   inkscape:pageopacity="0.0"
   inkscape:pagecheckerboard="0"
   inkscape:deskcolor="#d1d1d1"
   inkscape:zoom="0.43663916"
   inkscape:cx="586.29647"
   inkscape:cy="415.67504"
   inkscape:window-width="1512"
   inkscape:window-height="916"
   inkscape:window-x="0"
   inkscape:window-y="38"
   inkscape:window-maximized="0"
   inkscape:current-layer="Layer_1"
   showgrid="false" />

<g
   id="g25"
   inkscape:label="Think Ahead text"
   transform="translate(-1563.557,-268.46099)"
   inkscape:export-filename="think-ahead-with-text.png"
   inkscape:export-xdpi="96"
   inkscape:export-ydpi="96"
   style="stroke-width:7.55905512;stroke-dasharray:none;fill:none;stroke:#000000;stroke-opacity:1">
		
		
		
		
		<path
   fill-rule="evenodd"
   clip-rule="evenodd"
   fill="#29abe2"
   d="m 2608.435,1412.361 c 0,-38.167 0,-73.365 0,-109.567 21.349,0 41.238,0 62.187,0 0,93.433 0,185.997 0,279.668 -20.553,0 -40.424,0 -61.094,0 -0.612,-7.487 -1.16,-14.153 -1.937,-23.646 -25.614,23.374 -53.579,32.157 -85.697,23.133 -21.78,-6.121 -38.803,-19.292 -51.997,-37.197 -29.473,-39.995 -26.431,-94.736 6.671,-130.772 17.603,-19.165 39.476,-28.717 65.283,-30.567 26.062,-1.869 46.027,10.748 66.584,28.948 z m -98.233,69.67 c -0.44,28.466 18.907,50.786 44.274,51.074 28.304,0.326 51.386,-20.724 52.226,-47.627 0.884,-28.289 -20.334,-51.25 -47.622,-51.536 -27.935,-0.292 -48.441,19.884 -48.878,48.089 z"
   id="path11"
   inkscape:label="d"
   style="stroke-width:7.55905512;stroke-dasharray:none;fill:none;stroke:#000000;stroke-opacity:1" /><path
   fill-rule="evenodd"
   clip-rule="evenodd"
   fill="#29abe2"
   d="m 2067.071,1520.65 c 14.036,7.691 28.612,15.68 43.19,23.668 -19.896,36.9 -84.111,52.724 -130.166,32.244 -49.23,-21.892 -71.603,-72.276 -53.966,-127.33 16.148,-50.406 71.824,-77.142 127.821,-63.24 51.135,12.693 80.33,60.189 71.132,118.082 -46.837,0 -94.017,0 -141.372,0 4.029,37.702 43.327,45.137 83.361,16.576 z m 1.257,-52.185 c -3.826,-24.777 -20.905,-38.089 -46.146,-37.455 -23.558,0.59 -39.666,14.873 -41.483,37.455 28.902,0 57.75,0 87.629,0 z"
   id="path17"
   inkscape:label="a"
   style="stroke-width:7.55905512;stroke-dasharray:none;fill:none;stroke:#000000;stroke-opacity:1" /><path
   fill-rule="evenodd"
   clip-rule="evenodd"
   fill="#29abe2"
   d="m 2326.23,1466.555 c 0.136,-12.847 -4.632,-21.313 -15.675,-26.697 -19.519,-9.52 -39.227,-7.97 -59.088,-1.814 -5.609,1.734 -10.995,4.193 -17.443,6.694 -11.689,-9.5 -23.445,-19.056 -36.613,-29.759 14.497,-14.232 31.797,-22.01 50.053,-27.322 25.088,-7.301 50.72,-7.352 76.189,-1.644 43.292,9.7 65.873,37.364 66.887,81.76 0.362,15.797 0.885,31.652 0.01,47.405 -1.24,22.289 0.687,42.206 30.535,49.225 -15.521,13.537 -30.251,21.767 -46.517,23.457 -18.844,1.959 -27.121,-15.266 -38.632,-27.952 -2.86,2.403 -5.799,4.698 -8.544,7.206 -31.457,28.729 -83.52,28.018 -115.11,-0.688 -32.421,-29.462 -23.773,-83.645 16.534,-98.816 31.923,-12.019 63.538,-11.805 97.416,-1.055 z m -0.681,35.346 c -10.586,-0.762 -20.38,-2.09 -30.156,-1.97 -7.77,0.094 -15.888,0.855 -23.182,3.31 -9.73,3.278 -17.771,9.808 -16.945,21.492 0.83,11.73 8.41,18.339 19.518,21.208 29.76,7.696 53.188,-11.836 50.765,-44.04 z"
   id="path15"
   inkscape:label="e"
   style="stroke-width:7.55905512;stroke-dasharray:none;fill:none;stroke:#000000;stroke-opacity:1" /><path
   fill-rule="evenodd"
   clip-rule="evenodd"
   fill="#29abe2"
   d="m 1861.686,1582.395 c -19.119,0 -38.087,0 -58.452,0 -0.25,-5.698 -0.667,-10.993 -0.683,-16.288 -0.098,-30.12 0.146,-60.241 -0.202,-90.357 -0.361,-31.34 -22.26,-48.259 -52.466,-39.5 -32.733,9.495 -36.522,20.854 -35.499,44.147 1.275,29.073 0.226,58.249 0.184,87.381 -0.01,4.792 0,9.584 0,15.176 -21.026,0 -40.122,0 -60.563,0 0,-93.419 0,-186.385 0,-280.324 19.828,0 39.276,0 60.297,0 0,33.92 0,67.312 0,103.263 5.426,-2.852 8.771,-4.236 11.716,-6.219 24.023,-16.155 50.651,-19.677 78.027,-13.403 32.687,7.49 54.408,29.513 56.837,62.329 3.258,44.025 0.806,88.473 0.806,133.795 z"
   id="path14"
   inkscape:label="h"
   style="stroke-width:7.55905512;stroke-dasharray:none;fill:none;stroke:#000000;stroke-opacity:1" />
		
		
		
		
		<path
   fill-rule="evenodd"
   clip-rule="evenodd"
   fill="#29abe2"
   d="m 1446.188,1312.641 c 16.073,0 31.292,0 48.989,0 36.649,88.928 73.556,178.481 111.198,269.814 -22.323,0 -42.593,0 -63.623,0 -6.008,-15.186 -11.945,-30.191 -17.929,-45.314 -37.688,0 -74.599,0 -112.279,0 -6.107,15.207 -12.115,30.163 -18.416,45.849 -20.883,0 -41.37,0 -64.75,0 36.211,-91.761 77.888,-179.619 116.81,-270.349 z m 24.541,97.983 c -1.168,0.067 -2.336,0.134 -3.502,0.198 -9.429,23.103 -18.859,46.204 -28.907,70.824 20.749,0 39.521,0 60.186,0 -9.654,-24.682 -18.716,-47.851 -27.777,-71.022 z"
   id="path12"
   inkscape:label="A"
   style="stroke-width:7.55905512;stroke-dasharray:none;fill:none;stroke:#000000;stroke-opacity:1" /><path
   fill-rule="evenodd"
   clip-rule="evenodd"
   fill="#29abe2"
   d="m 2289.155,1251.961 c -4.656,4.301 -8.566,7.914 -12.337,11.398 -0.367,7.921 -0.705,15.248 -1.098,23.716 -8.119,0 -15.697,0 -24.501,0 0,-31.244 0,-62.485 0,-94.929 7.354,0 14.466,0 23.399,0 0,13.182 0,26.697 0,38.633 14.648,-13.269 29.241,-26.486 43.701,-39.584 10.168,0 19.33,0 31.629,0 -14.72,16.277 -27.754,30.689 -41.514,45.904 13.094,15.996 26.318,32.148 41.16,50.277 -11.359,0 -20.339,0 -31.742,0 -8.48,-10.468 -18.285,-22.567 -28.697,-35.415 z"
   id="path21"
   inkscape:label="K"
   style="stroke-width:7.55905512;stroke-dasharray:none;fill:none;stroke:#000000;stroke-opacity:1" /><path
   fill-rule="evenodd"
   clip-rule="evenodd"
   fill="#29abe2"
   d="m 2095.016,1287.334 c 0,-33.093 0,-63.589 0,-95.228 6.754,0 12.895,0 18.916,0 18.597,17.856 37.404,35.915 58.016,55.708 0,-18.828 0,-36.49 0,-55.293 9.189,0 16.256,0 24.776,0 0,31.07 0,62.352 0,95.482 -6.214,0.277 -12.824,0.572 -16.839,0.75 -20.839,-19.338 -39.918,-37.041 -60.072,-55.745 0,17.919 0,35.734 0,54.325 -9.366,10e-4 -16.85,10e-4 -24.797,10e-4 z"
   id="path19"
   inkscape:label="N"
   style="stroke-width:7.55905512;stroke-dasharray:none;fill:none;stroke:#000000;stroke-opacity:1" /><path
   fill-rule="evenodd"
   clip-rule="evenodd"
   fill="#29abe2"
   d="m 2037.219,1288.395 c -8.582,0 -15.886,0 -24.628,0 0,-31.936 0,-63.497 0,-95.955 7.983,0 15.666,0 24.628,0 0,31.317 0,62.9 0,95.955 z"
   id="path23"
   inkscape:label="I"
   style="stroke-width:7.55905512;stroke-dasharray:none;fill:none;stroke:#000000;stroke-opacity:1" /><path
   fill-rule="evenodd"
   clip-rule="evenodd"
   fill="#29abe2"
   d="m 1931.717,1191.751 c 9.999,0 17.217,0 25.333,0 0,32.175 0,63.452 0,95.706 -8.277,0 -15.852,0 -25.235,0 0,-12.084 0,-23.638 0,-35.994 -17.265,0 -32.736,0 -49.882,0 0,12.126 0,23.698 0,36.095 -8.839,0 -16.03,0 -24.531,0 0,-31.82 0,-63.481 0,-95.813 7.995,0 15.251,0 24.133,0 0.547,11.367 1.08,22.424 1.667,34.623 15.985,0 31.355,0 48.515,0 0,-11.446 0,-22.536 0,-34.617 z"
   id="path20"
   inkscape:label="H"
   style="stroke-width:7.55905512;stroke-dasharray:none;fill:none;stroke:#000000;stroke-opacity:1" /><path
   fill-rule="evenodd"
   clip-rule="evenodd"
   fill="#29abe2"
   d="m 1812.308,1191.923 c 0,8.689 0,15.456 0,23.433 -10.774,0.479 -20.902,0.925 -32.729,1.445 0,23.426 0,46.4 0,70.488 -9.771,0 -17.816,0 -27.658,0 0,-22.98 0,-45.908 0,-69.922 -11.864,-0.569 -22.054,-1.059 -33.472,-1.607 0,-7.912 0,-15.385 0,-23.837 31.38,0 62.169,0 93.859,0 z"
   id="path22"
   inkscape:label="T"
   style="stroke-width:7.55905512;stroke-dasharray:none;fill:none;stroke:#000000;stroke-opacity:1" />
	</g><path
   fill-rule="evenodd"
   clip-rule="evenodd"
   fill="#22b573"
   d="m 272.09101,637.96401 c -22.951,41.188 -44.813,80.429 -66.819,119.927 h -95.732 c 36.477,-65.897 75.572,-130.414 110.816,-194.091 h 326.155 c 13.464,24.404 26.262,47.601 40.915,74.164 z"
   id="path4"
   sodipodi:nodetypes="ccccccc"
   inkscape:label="A bottom left"
   style="fill:#ffffff;fill-opacity:1;stroke-width:11.33858268;stroke-dasharray:none;stroke:none;stroke-opacity:1" /><path
   fill-rule="evenodd"
   clip-rule="evenodd"
   fill="#22b573"
   d="m 808.336,757.89501 c -34.113,0 -65.70701,0 -98.85501,0 -83.582,-153.657 -167.493,-307.923 -252.825,-464.799 -19.024,34.539 -36.577,66.397 -54.532,98.987 -30.424,0 -60.944,0 -94.212,0 50.561,-93.047 100.473,-184.9 150.976,-277.844 116.674,214.905 232.495,428.239 349.44801,643.656 z"
   id="path2"
   inkscape:label="A right"
   style="fill:#ffffff;fill-opacity:1;stroke-width:11.33858268;stroke-dasharray:none;stroke:none;stroke-opacity:1" />






<path
   fill="#29abe2"
   d="m 597.17099,666.77801 c -39.344,27.875 -85.396,43.076 -137.529,43.076 -51.139,0 -98.62,-15.643 -137.794,-43.076 h -52.461 l -23.69,42.567 c 26.219,23.231 55.773,41.982 88.113,55.661 39.877,16.866 82.212,25.488 125.832,25.488 43.618,0 85.956,-8.52 125.832,-25.389 21.812,-9.225 32.945,-15.348 52.056,-28.963 z"
   id="path9"
   inkscape:label="O bottom"
   style="display:inline;fill:#ffffff;fill-opacity:1;stroke:none;stroke-width:11.3386;stroke-dasharray:none;stroke-opacity:1"
   sodipodi:nodetypes="csccccsccc" /><path
   id="path1"
   style="display:inline;fill:#ffffff;fill-opacity:1;stroke-width:11.33858268;stroke-dasharray:none;stroke:none;stroke-opacity:1"
   inkscape:label="O top right 1"
   d="M 509.69727 147.92773 L 564.10938 248.16797 C 637.81123 283.44309 691.06042 354.83022 700.82227 439.27148 C 701.00031 440.81156 701.1655 442.35567 701.31445 443.9043 C 701.40267 444.80066 701.48965 445.69664 701.56836 446.5957 C 701.78332 449.12583 701.97299 451.66344 702.10938 454.21484 L 702.10938 461.33398 C 708.55506 473.20614 714.99895 485.07527 721.44336 496.94531 L 721.44336 482.60938 L 721.44336 439.27148 L 721.44336 277.85938 C 711.28137 264.05612 700.44052 250.96591 688.23047 238.75586 C 658.55753 209.08292 623.98025 185.78196 585.48633 169.5 C 561.05737 159.16802 535.70021 151.96473 509.69727 147.92773 z " /><g
   id="g19"
   inkscape:label="O top right"
   style="display:inline;stroke-width:7.55905512;stroke-dasharray:none;fill:none;stroke:#000000;stroke-opacity:1"
   transform="translate(-8.5449219e-7,1.3671875e-5)"><path
     fill="#123c5e"
     d="m 658.26099,327.808 c 25.476,36.151 41.342,79.535 43.848,126.407 10.709,24.084 18.084,34.896 23.84,43.084 V 283.983 c -4.305,-6.061 -8.727,-11.981 -13.317,-17.756 -18.88,19.861 -36.864,40.51 -54.371,61.581 z"
     id="path10"
     style="display:none;fill:none;fill-opacity:1;stroke-width:7.55905512;stroke-dasharray:none;stroke:#000000;stroke-opacity:1"
     inkscape:label="O top right 2" /></g>




<path
   id="path5"
   style="display:none;fill:#29abe2;fill-opacity:1"
   inkscape:label="Single-object far right section"
   d="m 509.69727,147.92774 54.41211,100.24024 c 78.01392,37.33896 133.14,115.13096 138,206.04687 v 7.11914 c 9.81472,18.07751 19.63493,36.16545 29.43945,54.22461 l 11.61133,21.38868 23.57224,44.5957 c 46.8869,-45.01292 91.8971,-88.22627 138.002,-132.49219 L 743.31055,298.15235 725.94922,283.98243 C 714.51523,267.88245 702.24545,252.77086 688.23047,238.75587 658.5575,209.0829 623.98029,185.78199 585.48633,169.50001 561.05735,159.16802 535.70024,151.96474 509.69727,147.92774 Z" /><g
   id="g31"
   inkscape:label="Arrow right - link to O"
   style="display:inline;fill:none;fill-opacity:1;stroke-width:7.55905512;stroke-dasharray:none;stroke:#000000;stroke-opacity:1"
   transform="translate(-234.179,114.23901)"><path
     id="path51"
     style="display:none;fill:none;fill-opacity:1;stroke-width:7.55905512;stroke-dasharray:none;stroke:#000000;stroke-opacity:1"
     d="m 690.1296,439.27025 c 13.78627,25.39326 27.62419,50.88004 41.41797,76.28711 h 11.9336 c 0.26773,-23.40072 0.29225,-49.72975 0.23437,-76.28711 z"
     inkscape:label="Arrow right - tail, full"
     transform="translate(234.17899,-114.239)" /><path
     id="rect31"
     style="display:none;fill:none;fill-opacity:1;stroke-width:7.55905512;stroke-dasharray:none;stroke:#000000;stroke-opacity:1"
     d="m 960.12799,169.744 17.36101,14.17 -0.149,238.795 -11.61301,-21.39 -9.84621,-116.12306 z"
     sodipodi:nodetypes="cccccc"
     inkscape:label="Connector" /><path
     fill-rule="evenodd"
     clip-rule="evenodd"
     fill="#29abe2"
     d="m 977.48898,183.914 c 0,5.816 -9.74701,23.529 -9.73701,29.346 0.08,59.907 -2.18867,151.73178 9.58801,209.449 l 23.57102,44.595 c 46.887,-45.013 91.897,-88.227 138.002,-132.493"
     id="path31"
     sodipodi:nodetypes="ccccc"
     inkscape:label="Arrowhead"
     style="display:none;fill:none;fill-opacity:1;stroke-width:7.55905512;stroke-dasharray:none;stroke:#000000;stroke-opacity:1" /></g><path
   fill-rule="evenodd"
   clip-rule="evenodd"
   fill="#29abe2"
   d="m 743.30999,298.15301 c 0,5.816 -0.01,23.529 0,29.346 0.08,59.907 1.057,149.568 -0.149,209.449 l 23.57101,44.595 c 46.887,-45.013 91.897,-88.227 138.002,-132.493 z"
   id="path28"
   inkscape:label="Arrow right"
   style="display:inline;fill:#ffffff;stroke:none;stroke-width:11.3386;stroke-dasharray:none;stroke-opacity:1;fill-opacity:1"
   sodipodi:nodetypes="cccccc" />

<path
   id="path13"
   style="display:none;fill:#29abe2;fill-opacity:1"
   d="m 145.18016,392.08276 c -0.74774,3.12808 -1.46275,6.2679 -2.11523,9.43359 h 82.9746 c 0.90504,-3.17759 1.93176,-6.3074 2.9629,-9.43359 z"
   inkscape:label="O top left bonus" /><path
   id="path16"
   style="fill:#ffffff;fill-opacity:1;stroke:none;stroke-opacity:1;stroke-width:11.33858268;stroke-dasharray:none"
   d="m 407.78172,148.2937 c -25.37097,4.064 -50.11363,11.15801 -73.97461,21.25 -38.49596,16.28198 -73.05945,39.5624 -102.73242,69.23437 -29.67297,29.67197 -52.97587,64.40348 -69.25586,102.89844 -6.98693,16.51833 -12.52515,33.19788 -16.63867,50.40625 h 83.82227 c 20.48858,-62.11684 65.52294,-113.7936 123.6914,-142.49414 z"
   inkscape:label="O top left top" /><path
   id="rect49"
   style="display:inline;fill:#ffffff;fill-opacity:1;stroke:none;stroke-width:11.33858268;stroke-opacity:1;stroke-dasharray:none"
   inkscape:label="Flash bottom (new, thick)"
   d="M 40.343169,563.80048 C 26.932419,588.45515 13.376589,613.3753 0.00137915,637.96454 H 126.13614 c 14.37397,-24.85091 28.61203,-49.59429 42.21094,-74.16406 z"
   sodipodi:nodetypes="ccccc" /><g
   id="g53"
   inkscape:label="Flash bottom (old, thin)"
   style="display:none"
   transform="translate(-8.5449219e-7,1.3671875e-5)"><path
     id="path53"
     style="display:inline;fill:#22b573;fill-opacity:1;stroke:none;stroke-width:1.0351;stroke-opacity:1"
     d="m -134.45312,558.04297 c -9.11,0 -14.22733,5.23971 -14.73633,13.4707 -0.814,13.16899 -0.2168,26.43011 -0.2168,41.3711 H 0 v -54.8418 c -46.378042,0.005 -92.765398,0 -134.45312,0 z"
     inkscape:label="Flash bottom (old, thin) far-left"
     transform="translate(13.142,6.5700002)" /><path
     id="path52"
     inkscape:label="Flash bottom (old, thin)"
     d="m 0,558.04297 v 54.8418 h 117.98438 c 9.74899,-17.45699 19.51171,-34.93915 29.2207,-52.32813 -2.343,-1.548 -3.12139,-2.51367 -3.90039,-2.51367 -44.431675,-0.0211 -93.873404,-0.006 -143.30469,0 z m -148.77344,10.49023 c -0.006,0.0285 -0.0113,0.0573 -0.0176,0.0859 0.006,-0.0286 0.0112,-0.0575 0.0176,-0.0859 z m -0.83008,23.00196 c 0.0475,6.82874 0.19727,13.87911 0.19727,21.34961 0,-7.47049 -0.14972,-14.52059 -0.19727,-21.34961 z"
     style="display:inline;fill:#22b573;fill-opacity:1"
     transform="translate(13.142,6.5700002)" /></g><g
   id="g47"
   inkscape:label="Full flash lines"
   style="display:none"
   transform="translate(13.141999,6.5700137)"><path
     id="path48"
     inkscape:label="Flash bottom (old, thin)"
     d="m 0,558.04297 v 54.8418 h 117.98438 c 9.74899,-17.45699 19.51171,-34.93915 29.2207,-52.32813 -2.343,-1.548 -3.12139,-2.51367 -3.90039,-2.51367 -44.431675,-0.0211 -93.873404,-0.006 -143.30469,0 z m -148.77344,10.49023 c -0.006,0.0285 -0.0113,0.0573 -0.0176,0.0859 0.006,-0.0286 0.0112,-0.0575 0.0176,-0.0859 z m -0.83008,23.00196 c 0.0475,6.82874 0.19727,13.87911 0.19727,21.34961 0,-7.47049 -0.14972,-14.52059 -0.19727,-21.34961 z"
     style="display:inline;fill:#22b573;fill-opacity:1" /><path
     id="path43"
     inkscape:label="Flash bottom"
     d="m 0,558.04297 v 54.8418 h 117.98438 c 9.74899,-17.45699 19.51171,-34.93915 29.2207,-52.32813 -2.343,-1.548 -3.12139,-2.51367 -3.90039,-2.51367 -44.431675,-0.0211 -93.873404,-0.006 -143.30469,0 z m -148.77344,10.49023 c -0.006,0.0285 -0.0113,0.0573 -0.0176,0.0859 0.006,-0.0286 0.0112,-0.0575 0.0176,-0.0859 z m -0.83008,23.00196 c 0.0475,6.82874 0.19727,13.87911 0.19727,21.34961 0,-7.47049 -0.14972,-14.52059 -0.19727,-21.34961 z"
     style="fill:#22b573;fill-opacity:1" /><path
     id="path42"
     inkscape:label="Flash centre"
     d="m 0,432.70117 v 76.28711 h 518.3125 c -15.12098,-26.15897 -29.606,-51.22913 -44.08398,-76.28711 z"
     style="display:inline;fill:#29abe2;fill-opacity:1" /><path
     id="path44"
     style="fill:#29abe2;fill-opacity:1"
     inkscape:label="Flash top"
     d="m 49.302734,352.60352 c -9.101571,3e-4 -31.69643,0.0966 -49.302734,0.16992 v 42.17383 h 49.572266 35.832031 c 0.652479,-3.16567 1.367495,-6.30552 2.115234,-9.4336 2.668568,-11.1636 6.002647,-22.09129 9.876953,-32.91015 H 92.75 c -4.777255,1.6e-4 -17.579866,0.0662 -25.230469,0.0957 0.0147,-0.0347 0.02632,-0.061 0.04102,-0.0957 z m -161.501954,0.14453 c 4.60276,0.0946 10.94886,0.1518 18.402345,0.18554 -7.453485,-0.0337 -13.799585,-0.091 -18.402345,-0.18554 z m 43.447267,0 c 4.83785,0.0995 11.839133,0.15556 19.623047,0.19336 -7.783922,-0.0378 -14.785192,-0.0939 -19.623047,-0.19336 z" /><path
     id="path45"
     style="display:inline;fill:#22b573;fill-opacity:1;stroke:none;stroke-width:1.0351;stroke-opacity:1"
     d="m -134.45312,558.04297 c -9.11,0 -14.22733,5.23971 -14.73633,13.4707 -0.814,13.16899 -0.2168,26.43011 -0.2168,41.3711 H 0 v -54.8418 c -46.378042,0.005 -92.765398,0 -134.45312,0 z"
     inkscape:label="Flash bottom (old, thin) far-left" /><path
     id="path46"
     style="fill:#29abe2;fill-opacity:1;stroke:none;stroke-width:1.0351;stroke-opacity:1"
     d="m -159.65234,432.70117 v 76.28711 H 0 v -76.28711 z"
     inkscape:label="Flash middle far-left" /><path
     id="path47"
     style="fill:#29abe2;fill-opacity:1;stroke:none;stroke-width:1.0351;stroke-opacity:1"
     d="m -112.19922,352.74805 v 42.19922 H -68.751953 0 v -42.17383 c -17.544228,0.0731 -30.082396,0.12311 -49.128906,0.16797 -7.783922,-0.0378 -14.785192,-0.0939 -19.623047,-0.19336 v 0.22656 c -18.061092,0.006 -34.241747,-0.0374 -43.447267,-0.22656 z"
     inkscape:label="Flash top far-left" /></g><path
   id="path3"
   style="display:inline;fill:#ffffff;fill-opacity:1;stroke-width:11.33858268;stroke-dasharray:none;stroke:none;stroke-opacity:1"
   inkscape:label="Flash centre"
   d="m 108.0795,439.27118 c -13.876521,25.511 -27.672811,50.87398 -41.496091,76.28711 H 531.4545 c -15.12096,-26.15894 -29.60602,-51.22915 -44.08398,-76.28711 z" /><rect
   style="display:none;fill:#008000;fill-opacity:1;stroke:none;stroke-width:1.70967;stroke-opacity:1"
   id="rect32"
   width="904.73401"
   height="904.73401"
   x="0"
   y="0"
   inkscape:label="Background"
   inkscape:export-filename="think-ahead.png"
   inkscape:export-xdpi="96"
   inkscape:export-ydpi="96" /></svg>
