<?xml version="1.0" encoding="UTF-8" standalone="no"?>
<svg
   version="1.1"
   width="933.2334"
   height="866.00006"
   id="svg206"
   sodipodi:docname="rdes.svg"
   inkscape:version="1.4.2 (ebf0e940, 2025-05-08)"
   xmlns:inkscape="http://www.inkscape.org/namespaces/inkscape"
   xmlns:sodipodi="http://sodipodi.sourceforge.net/DTD/sodipodi-0.dtd"
   xmlns="http://www.w3.org/2000/svg"
   xmlns:svg="http://www.w3.org/2000/svg">
  <defs
     id="defs206" />
  <sodipodi:namedview
     id="namedview206"
     pagecolor="#ffffff"
     bordercolor="#000000"
     borderopacity="0.25"
     inkscape:showpageshadow="2"
     inkscape:pageopacity="0.0"
     inkscape:pagecheckerboard="0"
     inkscape:deskcolor="#d1d1d1"
     inkscape:zoom="0.63818976"
     inkscape:cx="402.70154"
     inkscape:cy="553.91048"
     inkscape:window-width="888"
     inkscape:window-height="916"
     inkscape:window-x="0"
     inkscape:window-y="38"
     inkscape:window-maximized="0"
     inkscape:current-layer="svg206" />
  <rect
     style="fill:#f8f7ef;fill-opacity:1;stroke:#f3e315;stroke-width:0.54742"
     id="rect46-3"
     width="932.68597"
     height="865.45264"
     x="0.27371001"
     y="0.27371001"
     inkscape:label="background" />
  <g
     id="g1"
     inkscape:label="keyboard"
     style="display:inline"
     transform="translate(-9.4296564)">
    <path
       d="m 231.54806,576.26079 c 168.1977,-0.90533 336.43366,2.67768 504.63255,1.64055 48.57372,-0.33974 48.57372,-0.33974 62.40511,12.87564 4.11563,4.29835 9.63116,10.07437 12.99803,14.97114 4.50065,6.16694 3.7728,4.35135 13.4877,13.88031 l 2.48828,2.41015 c 3.85377,4.42875 5.81563,8.55136 5.54297,14.51563 -0.96883,5.66986 -4.66844,10.17158 -9.09871,13.63282 -7.6099,4.67399 -17.2819,4.81616 -25.95429,4.75642 -99.34199,0.38671 -504.98331,-0.31192 -623.11574,0.0142 -3.57265,0.009 -7.1448,-2.2e-4 -10.71743,-0.0142 l -3.10411,0.0213 c -9.2646,-0.0724 -18.49524,-1.70431 -25.35346,-8.39881 -3.54985,-4.21346 -4.45018,-8.16176 -4.53126,-13.59375 4.09087,-18.5292 28.00669,-38.74412 43.22488,-49.44888 16.50681,-9.77197 38.5845,-7.71825 57.09548,-7.2625 z"
       fill="#083245"
       id="path5"
       sodipodi:nodetypes="cccccccccccccccc" />
    <path
       d="m 414.12869,607.18497 c 1.31088,-0.008 2.62176,-0.0169 3.97237,-0.0256 1.45099,0.006 2.90198,0.012 4.35296,0.0184 1.52941,-0.004 3.05882,-0.009 4.58821,-0.0159 4.15294,-0.0137 8.30565,-0.008 12.45858,10e-4 4.34587,0.008 8.69171,5.5e-4 13.03758,-0.004 7.29939,-0.005 14.59868,0.002 21.89806,0.016 8.43768,0.0163 16.87514,0.011 25.31282,-0.005 7.24428,-0.0136 14.48849,-0.0155 21.73278,-0.008 4.32669,0.005 8.65327,0.005 12.97995,-0.005 4.06876,-0.009 8.13724,-0.003 12.20596,0.0147 1.49274,0.004 2.98551,0.003 4.47824,-0.004 2.03867,-0.008 4.07739,0.004 6.11604,0.017 1.71089,0.002 1.71089,0.002 3.45634,0.003 3.43726,0.4268 5.27528,1.32322 8.04037,3.37752 1.62817,2.12053 3.00928,4.10392 4.375,6.375 0.36739,0.56461 0.73477,1.12922 1.11329,1.71094 2.52213,4.11156 2.52051,4.87007 1.51171,9.91406 -58.74,0 -117.48,0 -178,0 -1.14583,-5.72918 -0.5504,-6.7137 2.1875,-11.625 0.61231,-1.12664 1.22461,-2.25328 1.85547,-3.41406 3.48106,-5.26674 6.04891,-6.33566 12.32677,-6.34189 z"
       fill="#f9f8ee"
       id="path7" />
  </g>
  <g
     id="g4"
     inkscape:label="screen"
     transform="translate(-9.4296564)">
    <path
       d="m 212.75895,244.56592 h 539 v 295 h -539 z m 388,30 -3.375,1.09766 c -13.45757,4.77161 -25.63181,11.82037 -36.625,20.90234 l -3.02344,2.48828 c -15.13763,12.91787 -26.00084,30.60173 -31.97656,49.51172 -1.6557,-3.05366 -2.83628,-6.214 -4.00293,-9.4812 -9.1304,-25.43681 -25.87624,-44.54308 -50.4541,-56.15161 -23.90842,-9.65588 -49.14449,-9.9483 -73.16016,-0.8125 -9.35419,3.99659 -17.62041,8.88974 -25.38281,15.44531 l -1.94141,1.46875 c -14.06206,11.13602 -24.05859,31.44582 -24.05859,38.53125 -12.80878,-1.58463 -24.73091,0.61027 -37,4 l -2.67968,1.13282 c -6.10794,2.80333 -11.25782,6.47315 -16.32032,10.86718 l -2.28125,1.95703 c -11.47363,10.58954 -17.7815,24.5622 -18.71875,40.04297 l -2.75,0.0625 c -10.53087,1.57431 -19.79656,9.96561 -26.25,17.9375 -7.45554,10.6629 -11.5858,21.28206 -11.375,34.375 l 0.0308,2.78491 c 0.37056,16.27132 6.06012,29.60284 17.49268,41.14478 12.46093,11.77814 27.92777,17.02163 44.89282,16.96274 l 2.94444,0.0137 c 3.23528,0.0126 6.4704,0.011 9.70571,0.009 2.3284,0.006 4.65679,0.0128 6.98518,0.0204 6.3124,0.0176 12.62475,0.0224 18.93717,0.0236 3.9499,10e-4 7.89978,0.006 11.84968,0.011 13.08639,0.0175 26.17274,0.0268 39.25914,0.0253 l 2.13435,-2.4e-4 2.137,-2.5e-4 c 11.41112,-8.1e-4 22.8221,0.0183 34.23318,0.0465 11.74686,0.0288 23.49365,0.0425 35.24054,0.0408 6.5828,-5e-4 13.16544,0.005 19.7482,0.0264 6.19877,0.0195 12.39724,0.0194 18.59601,0.005 2.26336,-0.002 4.52673,0.003 6.79005,0.0147 23.43625,0.11777 46.827,-3.41641 64.40981,-20.45296 l 1.55078,-1.67538 2.4375,-2.375 c 2.92788,0.35862 5.34089,1.56078 7.94922,2.89062 27.66345,13.79055 60.02591,18.5034 90.05078,9.10938 l 2.07178,-0.6333 c 28.09053,-8.86755 53.48359,-28.74109 67.37744,-54.85108 13.22656,-26.08346 17.53282,-58.07757 9.55078,-86.51562 l -0.99609,-3.6875 c -8.46552,-28.12075 -28.26335,-52.3054 -53.91797,-66.53125 -8.71321,-4.62716 -17.63427,-7.98156 -27.08594,-10.78125 l -3.43359,-1.07031 c -18.111,-4.72116 -41.8528,-3.95943 -59.56641,2.07031 z"
       fill="#f9f8ee"
       id="path3"
       sodipodi:nodetypes="ccccccccccccccccccccccccccccccccscscccccccccccccccccc" />
    <path
       d="m 217.60883,215.4317 c 888.69247,-2.27137 -312.095103,3.56279 517.37806,-0.37099 25.85619,-0.1315 25.85619,-0.1315 36.11971,9.71225 5.34546,5.80039 7.8967,11.69375 7.91241,19.57452 2.30973,157.85753 -1.21927,153.8412 0.39487,308.99184 -0.0913,9.27267 -0.0913,9.27267 -3.06815,12.97544 -4.46086,3.88238 -8.17459,3.3935 -13.86117,3.38259 -187.60582,1.22334 -375.2442,-1.29176 -562.84666,0.26406 -4.77876,-0.0398 -8.01581,-0.25799 -11.87875,-3.39495 -3.39836,-4.73342 -4.12349,-8.68002 -4.13422,-14.41496 -0.47604,-100.67136 0.32584,-201.34606 -0.38685,-302.01599 0.082,-10.73453 2.82161,-18.73818 10.2279,-26.58912 7.19577,-6.21508 14.86624,-8.13063 24.14285,-8.11469 z m -4.84988,29.13422 v 295 h 539 v -295 z"
       fill="#083143"
       id="path4"
       sodipodi:nodetypes="cccccccccccccccccc" />
  </g>
  <g
     id="g5"
     transform="translate(-6.2677282,1.5669321)">
    <path
       d="m 621.42231,270.38062 c 2.07143,-0.002 4.1423,-0.0203 6.21363,-0.0393 7.77638,-0.0338 15.11368,0.43078 22.69336,2.22461 l 2.18188,0.50415 c 11.02685,2.71104 20.9267,6.96982 30.81812,12.49585 l 2.98828,1.64843 c 7.40482,4.3936 13.47744,10.05286 19.62549,16.01661 1.11865,1.07727 2.26242,2.12842 3.41357,3.17089 17.77463,16.47813 29.16566,43.29269 30.0957,67.34644 0.65336,29.36323 0.65336,29.36323 -3.12305,42.81762 l -0.99609,3.6875 c -8.72125,28.97025 -28.81964,52.1245 -55.16015,66.67188 -18.74296,9.88515 -36.90537,13.88583 -57.90625,14.01562 l -2.04315,0.0241 c -12.84614,0.1161 -24.98025,-1.52065 -37.01935,-6.14908 l -1.9795,-0.7561 c -5.7059,-2.25288 -10.96436,-5.1277 -16.22363,-8.27124 -2.49612,-1.37736 -2.49612,-1.37736 -4.74219,-1.17578 -2.64865,1.30824 -4.43835,3.08288 -6.55468,5.14062 -8.69243,7.99552 -18.04866,12.53585 -29.375,15.8125 l -2.41765,0.75687 c -12.03418,3.30381 -96.83024,3.12529 -222.69361,2.75099 -2.26097,-0.004 -4.52196,-6.3e-4 -6.7829,0.01 -20.60556,0.0885 -39.25268,-2.2126 -54.85585,-17.16563 -12.96251,-13.54763 -17.79014,-28.06756 -17.66943,-46.62989 0.19937,-7.15941 1.24612,-13.23381 4.41943,-19.72168 l 1.47266,-3.03515 c 6.30355,-11.78749 15.34191,-20.39339 27.52734,-25.96485 2.48215,-0.69483 4.41232,-0.94119 7,-1 l 0.0781,-1.80078 c 1.15592,-16.89223 9.97422,-30.86667 22.39746,-41.90527 15.44379,-14.43496 34.93663,-14.43088 54.52441,-14.29394 l 0.28906,-2.5625 c 3.47353,-16.79507 18.17272,-32.83889 31.71094,-42.4375 22.8911,-15.03071 48.19613,-20.38977 75.02735,-14.91016 23.4448,5.18572 44.3287,19.18975 57.68359,39.19922 6.24095,9.83249 10.24666,20.50507 13.28906,31.71094 1.79379,-2.69069 2.98493,-5.26457 4.20655,-8.24146 12.05863,-29.17726 34.5812,-50.78547 63.58792,-62.90278 12.62769,-4.90347 24.77572,-7.04333 38.29858,-7.04175 z"
       fill="#093143"
       id="path2"
       sodipodi:nodetypes="cccccccccccccccccccccccccccccccccccccccc"
       style="display:inline"
       inkscape:label="outlines" />
    <path
       d="m 458.32929,299.56592 2.76563,1.26954 c 7.99557,3.96352 13.9731,9.49618 20.23437,15.73046 l 2.03125,1.92578 c 11.10041,11.37792 16.61196,29.13724 18.28125,44.51563 0.88887,3.30799 1.93312,4.52929 4.6875,6.55859 3.1747,0.84159 3.1747,0.84159 6.75,1.25 16.96918,2.32961 49.92753,19.92583 51.6875,60.625 -0.54474,17.06856 -7.46895,33.46744 -19.55468,45.5 -11.77702,10.72379 -25.8792,15.78025 -41.60405,15.76544 -214.80083,1.54225 -2.81928,-0.64033 -223.08697,1.31174 -12.28121,-0.0941 -24.28214,-5.76649 -33.3793,-13.95218 -9.65112,-10.14153 -12.41948,-22.59038 -12.15234,-36.12891 0.56899,-10.90052 6.65383,-20.06415 14.44922,-27.33984 5.73675,-4.54321 11.47227,-6.31439 18.53295,-7.70239 4.48321,-0.82171 4.48321,-0.82171 7.35767,-4.32886 0.17643,-2.4961 0.26853,-4.93982 0.3125,-7.4375 0.53096,-12.29112 5.13975,-21.6919 13.6875,-30.5625 3.40112,-3.09787 22.30605,-19.0761 44.25,-13 3.01916,0.80511 5.47911,1.27418 8.5625,1.4375 l 2.20703,0.1211 c 2.17981,-0.40511 2.17981,-0.40511 3.56641,-2.57422 1.7269,-3.64462 2.97741,-7.34283 4.22656,-11.17188 6.39966,-18.70789 18.4881,-33.16004 36.1875,-42.125 22.36014,-10.93 47.59853,-10.486 70,0.3125 z"
       fill="#f9f7ed"
       id="path6"
       sodipodi:nodetypes="ccccccccccccccccccccccccc"
       style="display:inline"
       inkscape:label="cloud-inner" />
    <g
       id="g3"
       inkscape:label="&lt;/&gt;"
       transform="translate(-9.4296564)">
      <path
         d="m 439.75895,371.56592 c 2.5,1.4375 2.5,1.4375 4,4 -0.32314,7.54118 -2.43975,14.18211 -4.83203,21.30078 -17.4965,53.89664 -17.66248,53.66392 -24.91797,75.66797 l -1.10937,3.41992 c -1.14063,2.61133 -1.14063,2.61133 -4.14063,4.61133 -3.5023,0.4471 -5.33244,0.40405 -8.375,-1.4375 -2.73158,-4.3075 -2.17425,-9.08011 -1.09368,-13.9638 0.83075,-2.82943 18.30837,-54.60427 27.28964,-83.84087 2.4117,-7.41925 5.03478,-10.92129 13.17904,-9.75783 z"
         fill="#0a3041"
         id="path32"
         sodipodi:nodetypes="cccccccccc" />
      <path
         d="m 388.75895,388.56592 c 3.23513,2.12838 3.88518,3.45719 4.6875,7.25 -0.99432,5.42361 -3.85154,7.94824 -7.6875,11.75 l -2.41015,2.48438 c -4.4603,4.54992 -9.05201,8.83983 -13.89453,12.97656 -2.1794,1.97853 -3.96658,4.16206 -5.69532,6.53906 11.85049,12.18378 5.6743,4.68282 23.05152,21.91285 4.80849,4.82718 4.80849,4.82718 5.32348,9.46215 -0.375,3.625 -0.375,3.625 -2.4375,6.125 -3.98489,2.03484 -5.62801,1.70984 -9.9375,0.5 -2.9572,-2.25247 -5.41887,-4.89993 -7.9375,-7.625 -9.69723,-10.65744 -8.54953,-7.77657 -24.05859,-23.23828 -2.34517,-2.50059 -2.93008,-3.48709 -3.31641,-6.88672 0.71658,-7.45242 7.38052,-12.62229 12.4375,-17.625 5.12524,-5.16729 10.31711,-10.27984 15.75,-15.125 2.25867,-1.90677 4.40754,-3.78253 6.5,-5.875 3.00738,-3.00737 5.47408,-3.04009 9.625,-2.625 z"
         fill="#0a3143"
         id="path33"
         sodipodi:nodetypes="scccccccccccccccs" />
      <path
         d="m 461.64567,389.01904 c 4.28793,1.10963 36.5014,31.10545 37.49968,36.72011 0.26299,4.91685 0.0248,8.03433 -3.24455,11.85191 -11.30598,11.40918 -28.63472,28.38471 -34.14184,30.97486 -3.76412,-0.0649 -6.04568,-0.22461 -9,-2.625 -1.49208,-3.54367 -0.93571,-5.66026 0,-9.375 2.02878,-2.92806 12.37421,-12.95665 28,-28 -7.15688,-8.81167 -15.8234,-16.39184 -24.375,-23.8125 -3.07468,-2.56223 -4.4876,-4.11119 -5,-8.125 0.375,-3.0625 0.375,-3.0625 1.875,-5.4375 2.82878,-1.83871 5.00425,-2.39449 8.38671,-2.17188 z"
         fill="#0a3042"
         id="path34"
         sodipodi:nodetypes="ccccccccccc" />
    </g>
    <g
       id="g2"
       inkscape:label="globe inner"
       style="display:inline"
       transform="translate(-9.4296564)">
      <path
         d="m 717.75896,330.56593 c 11.95042,13.71097 15.65463,32.51018 17,50 -12.87,0 -25.74,0 -39,0 -0.875,-10.875 -0.875,-10.875 -1.13623,-14.23779 -0.47242,-5.63411 -1.26136,-11.0397 -2.45801,-16.56348 -0.50886,-2.75738 -0.55289,-5.40333 -0.40576,-8.19873 0.60997,-0.22663 1.21994,-0.45327 1.84839,-0.68677 2.78164,-1.0368 5.56037,-2.08119 8.33911,-3.12573 0.95971,-0.35643 1.91941,-0.71285 2.9082,-1.08008 4.54984,-1.71603 8.85465,-3.35851 12.9043,-6.10742 z"
         fill="#f8f7ee"
         id="path36" />
      <path
         d="m 695.75896,393.56593 c 12.87,0 25.74,0 39,0 -2.67652,17.39737 -6.19012,32.28517 -16,47 -5.42637,-1.76357 -10.74582,-3.76439 -16.07813,-5.78906 -0.67546,-0.25524 -1.35093,-0.51047 -2.04687,-0.77344 -0.6007,-0.22816 -1.20141,-0.45633 -1.82031,-0.69141 -2.6676,-0.96865 -5.35978,-1.85669 -8.05469,-2.74609 0.11594,-0.76554 0.23187,-1.53108 0.35132,-2.31982 0.53128,-3.51802 1.05876,-7.03659 1.58618,-10.55518 0.2736,-1.80598 0.2736,-1.80598 0.55273,-3.64844 0.17725,-1.18594 0.3545,-2.37187 0.53711,-3.59375 0.24352,-1.61817 0.24352,-1.61817 0.49195,-3.26904 0.6019,-4.52483 1.02651,-9.07174 1.48071,-13.61377 z"
         fill="#f8f7ed"
         id="path38" />
      <path
         d="m 677.75896,345.56593 c 0.49293,2.47706 0.96905,4.95578 1.4375,7.4375 0.13471,0.66838 0.26941,1.33676 0.4082,2.02539 1.53074,8.25102 1.64857,15.93977 2.1543,24.53711 -13.2,0 -26.4,0 -40,0 0,-9.9 0,-19.8 0,-30 3.40313,-0.15469 3.40313,-0.15469 6.875,-0.3125 7.96472,-0.43243 15.71216,-1.65468 23.55469,-3.06641 3.57031,-0.62109 3.57031,-0.62109 5.57031,-0.62109 z"
         fill="#f8f6ed"
         id="path46" />
      <path
         d="m 592.75896,345.56593 c 0.56284,0.0856 1.12567,0.17128 1.70557,0.25952 2.639,0.39824 5.27918,0.78811 7.91943,1.17798 1.32645,0.20206 1.32645,0.20206 2.67969,0.4082 7.60297,1.1133 14.96583,1.60219 22.69531,2.1543 0,9.9 0,19.8 0,30 -12.87,0 -25.74,0 -39,0 0,-6.26717 0.16845,-11.97693 0.875,-18.125 0.0786,-0.75926 0.15727,-1.51852 0.23828,-2.30078 0.52795,-4.71908 1.45709,-9.04507 2.88672,-13.57422 z"
         fill="#f8f7ee"
         id="path47" />
      <path
         d="m 642.75896,394.56593 c 12.87,0 25.74,0 39,0 -0.60974,7.92665 -1.24677,15.52512 -2.5625,23.3125 -0.20786,1.27134 -0.20786,1.27134 -0.41992,2.56836 -0.33432,2.04052 -0.6752,4.07996 -1.01758,6.11914 -7.92327,-0.66216 -15.80152,-1.5534 -23.6875,-2.5625 -3.73312,-0.47438 -7.46625,-0.94875 -11.3125,-1.4375 0,-9.24 0,-18.48 0,-28 z"
         fill="#f8f7ee"
         id="path49" />
      <path
         d="m 551.75896,331.56593 c 3.71938,0.60657 6.73609,1.67874 10.125,3.3125 5.51392,2.58066 11.12521,4.69676 16.875,6.6875 -0.0804,0.56695 -0.16081,1.13389 -0.24365,1.71802 -1.84406,13.07282 -3.4667,26.14276 -4.75635,39.28198 -2.72147,-1.06915 -3.99627,-1.99531 -5.83984,-4.31641 -2.53412,-3.14816 -5.43618,-5.33356 -8.72266,-7.62109 -0.61118,-0.43168 -1.22235,-0.86335 -1.85205,-1.30811 -5.3009,-3.6832 -10.81566,-6.85772 -16.58545,-9.75439 1.85026,-10.09234 5.63856,-19.26284 11,-28 z"
         fill="#f7f6ee"
         id="path50" />
      <path
         d="m 588.75896,393.56593 c 19.305,0.495 19.305,0.495 39,1 0,9.24 0,18.48 0,28 -11.875,0.9375 -11.875,0.9375 -15.5542,1.22632 -5.88796,0.46806 -11.75635,0.99299 -17.62207,1.68994 -0.60183,0.0276 -1.20366,0.0553 -1.82373,0.0837 -1.74508,-1.74508 -1.4815,-4.22973 -1.75391,-6.60938 -0.13213,-1.14726 -0.26425,-2.29453 -0.40039,-3.47656 -0.1347,-1.20914 -0.26941,-2.41828 -0.4082,-3.66406 -0.13857,-1.19367 -0.27715,-2.38734 -0.41992,-3.61719 -0.56,-4.93238 -1.01758,-9.65962 -1.01758,-14.63281 z"
         fill="#f9f7ed"
         id="path51" />
      <path
         d="m 641.75896,287.56593 c 9.51308,1.90262 15.71004,10.21877 21,18 11,19.31161 11,19.31161 11,27 -10.48604,3.49535 -20.99582,4 -32,4 0,-16.17 0,-32.34 0,-49 z"
         fill="#f6f6ed"
         id="path52" />
      <path
         d="m 627.75896,287.56593 c 0,16.17 0,32.34 0,49 -7.28569,0 -13.5436,-0.15319 -20.5625,-1.4375 -0.79213,-0.13471 -1.58426,-0.26941 -2.40039,-0.4082 -5.73204,-1.00177 -5.73204,-1.00177 -8.03711,-2.1543 1.6478,-14.26592 10.83933,-30.47858 21.34375,-40.16016 6.31582,-4.83984 6.31582,-4.83984 9.65625,-4.83984 z"
         fill="#f6f6ed"
         id="path54" />
      <path
         d="m 627.75896,435.56593 c 0,16.17 0,32.34 0,49 -14.43972,-5.77589 -21.96465,-20.44442 -28,-34 -1.57864,-3.99139 -3,-7.6561 -3,-12 10.34222,-1.55511 20.52971,-3 31,-3 z"
         fill="#f8f7ee"
         id="path56" />
      <path
         d="m 642.75896,435.56593 c 11.25,0 11.25,0 15.35156,0.875 0.87012,0.18047 1.74024,0.36094 2.63672,0.54687 0.87012,0.19079 1.74024,0.38157 2.63672,0.57813 0.90879,0.19078 1.81758,0.38156 2.75391,0.57812 2.20908,0.46508 4.41582,0.9391 6.62109,1.42188 -3.0998,15.16741 -9.6317,32.27509 -22.92578,41.30859 -4.4981,2.69141 -4.4981,2.69141 -7.07422,2.69141 0,-15.84 0,-31.68 0,-48 z"
         fill="#f8f7ee"
         id="path58" />
      <path
         d="m 669.75896,291.56593 c 15.22573,7.35496 27.81761,15.20497 40,27 -3.47024,2.98631 -6.7025,4.95971 -10.9375,6.6875 -0.99902,0.41637 -1.99805,0.83273 -3.02734,1.26172 -3.01868,1.04508 -5.87509,1.62222 -9.03516,2.05078 -0.25652,-0.8134 -0.51305,-1.6268 -0.77734,-2.46484 -2.41198,-7.2197 -5.26763,-13.93606 -8.84766,-20.66016 -0.57609,-1.08269 -0.57609,-1.08269 -1.16382,-2.18726 -1.87157,-3.44387 -3.85483,-6.55094 -6.21118,-9.68774 0,-0.66 0,-1.32 0,-2 z"
         fill="#f6f6ee"
         id="path67" />
      <path
         d="m 598.75896,292.56593 c 0.66,0.33 1.32,0.66 2,1 -0.4009,0.57363 -0.8018,1.14727 -1.21484,1.73828 -6.89435,10.30244 -12.35668,21.68674 -16.78516,33.26172 -7.6947,-1.90281 -14.17881,-4.99287 -21,-9 6.00936,-13.06753 24.17989,-21.82125 37,-27 z"
         fill="#f6f6ee"
         id="path68" />
      <path
         d="m 686.75896,443.56593 c 7.78719,1.85266 14.81265,4.48279 22,8 -5.21824,12.71034 -22.64568,20.4306 -34.07422,26.28516 -0.63551,0.23589 -1.27101,0.47179 -1.92578,0.71484 -0.66,-0.33 -1.32,-0.66 -2,-1 0.34031,-0.50145 0.68062,-1.00289 1.03125,-1.51953 6.46117,-10.08699 10.55987,-21.3908 14.96875,-32.48047 z"
         fill="#f4f5ed"
         id="path69" />
      <path
         d="m 585.75896,452.56593 c 2.74064,2.74064 4.08483,6.05005 5.75,9.5 3.11982,6.36558 6.44805,12.50905 10.25,18.5 -8.02212,-1.7689 -15.11744,-4.44125 -22,-9 -0.33,-0.66 -0.66,-1.32 -1,-2 0.92578,-2.39063 0.92578,-2.39063 2.3125,-5.25 1.82955,-3.86746 3.46534,-7.63909 4.6875,-11.75 z"
         fill="#f3f4ee"
         id="path82" />
    </g>
  </g>
</svg>
