<?xml version="1.0" encoding="UTF-8" standalone="no"?>
<svg
   viewBox="0 0 308.36444 237.51388"
   id="Layer_1"
   version="1.1"
   sodipodi:docname="self-hosted-teleport.svg"
   inkscape:version="1.4.2 (ebf0e940, 2025-05-08)"
   xml:space="preserve"
   width="308.36444"
   height="237.51389"
   xmlns:inkscape="http://www.inkscape.org/namespaces/inkscape"
   xmlns:sodipodi="http://sodipodi.sourceforge.net/DTD/sodipodi-0.dtd"
   xmlns="http://www.w3.org/2000/svg"
   xmlns:svg="http://www.w3.org/2000/svg"><sodipodi:namedview
     id="namedview9"
     pagecolor="#ffffff"
     bordercolor="#000000"
     borderopacity="0.25"
     inkscape:showpageshadow="2"
     inkscape:pageopacity="0.0"
     inkscape:pagecheckerboard="0"
     inkscape:deskcolor="#d1d1d1"
     inkscape:zoom="2.0012932"
     inkscape:cx="117.67391"
     inkscape:cy="178.13481"
     inkscape:window-width="1512"
     inkscape:window-height="916"
     inkscape:window-x="0"
     inkscape:window-y="38"
     inkscape:window-maximized="1"
     inkscape:current-layer="Layer_1" /><defs
     id="defs1"><rect
       x="143.25195"
       y="-178.6228"
       width="7.9584422"
       height="65.436081"
       id="rect12" /><style
       id="style1">
      .teleport-purple {
        fill: #512fc9;
        stroke-width: 0px;
      }
    </style></defs><rect
     style="fill:#f8f7ef;fill-opacity:1;stroke:#f3e315;stroke-width:0.164794"
     id="rect46-3"
     width="308.19965"
     height="237.34909"
     x="0.082396999"
     y="0.082396999"
     inkscape:label="background"
     sodipodi:insensitive="true" /><g
     id="g11"
     inkscape:label="teleport"
     transform="matrix(1.8927174,0,0,1.8927174,114.39201,19.556397)"><path
       d="m 37.658264,25.22339 -3.83563,-3.26593 0.07104,-0.44318 c 0.08032,-0.59912 0.10657,-1.22443 0.10657,-1.8421 0,-0.76752 -0.04016,-1.55652 -0.17761,-2.28534 l 3.83563,-3.26117 0.0849,-0.07104 c 0.10193,-0.10034 0.17145,-0.23157 0.19763,-0.37213 0.02783,-0.14209 0.0093,-0.28876 -0.04938,-0.42004 -0.7829,-2.36249 -2.13397,-4.61072 -3.79541,-6.47455 -0.23474,-0.26703 -0.56677,-0.36438 -0.87866,-0.22845 l -4.83282,1.64905 -0.40149,-0.31036 c -1.10034,-0.81836 -2.30737,-1.48224 -3.58759,-1.97339 l -0.95721,-4.91333 -0.02777,-0.10192997 c -0.04773,-0.13898 -0.1322,-0.26099 -0.24463,-0.35516 -0.11243,-0.09424 -0.24829,-0.15594 -0.39294,-0.17755 l -0.0017,-0.00159 c -2.50476,-0.50024 -5.08356,-0.50024 -7.58813,0 -0.1626,0.02472 -0.31348,0.09888 -0.43256,0.21161 -0.11908,0.1142 -0.20026,0.26093 -0.23303,0.42302997 l -0.95703,4.91345 -0.43433,0.17291 c -1.28314,0.52502 -2.48163,1.23529 -3.5564597,2.11078 l -4.83154,-1.65063 -0.10657,-0.03394 c -0.14117,-0.034 -0.28888,-0.02637 -0.42621,0.02008 -0.13745,0.04785 -0.25836,0.13275 -0.349,0.24542 -1.66363,1.86382 -3.01239004,4.11205 -3.79419004,6.47454 -0.06702,0.14825 -0.08032,0.31506 -0.03748,0.4726 0.04272,0.15747 0.13873,0.29639 0.27185,0.39062 l 3.83521004,3.2627 -0.07214,0.44318 c -0.08032,0.59912 -0.10504,1.22766 -0.10504,1.84064 -0.01062,0.76587 0.04852,1.53027 0.17719,2.28528 l -3.83350004,3.26593 -0.08521,0.0694 c -0.10254,0.10187 -0.17175,0.23169 -0.19843,0.37366 -0.02655,0.14209 -0.0094,0.28882 0.04926,0.41998 0.7818,2.36407 2.13055004,4.60931 3.79407004,6.46991 0.23608,0.26874 0.56873,0.36597 0.88019,0.23169 l 4.83154,-1.65228 0.35236,0.28418 c 1.1106597,0.83691 2.3361197,1.51172 3.6384297,2.00116 l 0.95703,4.9165 0.02631,0.10187 c 0.04803,0.13745 0.13293,0.26105 0.24567,0.35529 0.11255,0.09412 0.2486,0.1543 0.39362,0.17755 1.25214,0.22852 2.50427,0.36279 3.79559,0.36279 1.28992,0 2.54211,-0.13428 3.79425,-0.36279 0.16223,-0.02637 0.31299,-0.1004 0.43188,-0.21313 0.1189,-0.11432 0.20044,-0.26093 0.23346,-0.42157 l 0.95874,-4.9165 0.47858,-0.19305 c 1.2652,-0.53424 2.4502,-1.23834 3.51068,-2.09229 l 4.83112,1.65228 0.10498,0.03552 c 0.28107,0.07568 0.56519,-0.02783 0.77521,-0.26721 1.66455,-1.8606 3.01251,-4.10583 3.79388,-6.46991 0.06793,-0.14819 0.08032,-0.31647 0.03857,-0.47406 -0.04315,-0.15741 -0.13892,-0.29486 -0.27173,-0.38898 z m -18.68115,5.95404 c -6.36896,0 -11.5316197,-5.15271 -11.5316197,-11.50836 0,-6.35529 5.1589997,-11.5094 11.5307597,-11.50989 -3.1e-4,0 -5.5e-4,-6e-5 -8.5e-4,-6e-5 h 0.0017 c -3.1e-4,0 -5.5e-4,6e-5 -8.5e-4,6e-5 6.37018,4.9e-4 11.53271,5.1546 11.53271,11.50989 0,6.35565 -5.16296,11.50836 -11.53186,11.50836 z"
       class="teleport-purple"
       id="path8" /><path
       d="m 18.976934,11.80157 c -4.34424,3.1e-4 -7.87878,3.52948 -7.87878,7.86707 0,4.33759 3.53455,7.86639 7.87909,7.86639 4.34454,0 7.87903,-3.52881 7.87903,-7.86639 0,-4.33758 -3.53479,-7.86676 -7.87933,-7.86707 z m 3e-4,12.48975 c -2.55603,0 -4.63538,-2.07361 -4.63538,-4.62268 0,-2.54938 2.07904,-4.62329 4.6344,-4.62329 2.55634,0 4.63629,2.07391 4.63629,4.62329 0,2.54907 -2.07928,4.62268 -4.63531,4.62268 z"
       class="teleport-purple"
       id="path9"
       inkscape:label="teleport" /></g><g
     fill-rule="evenodd"
     id="g3"
     transform="matrix(0.63811531,0,0,0.63811531,24.402986,130.58356)"
     inkscape:label="terraform"><path
       d="M 77.941,44.5 V 81.336 L 46.324,62.918 V 26.082 Z m 0,0"
       fill="#5c4ee5"
       id="path1" /><path
       d="M 81.41,81.336 113.043,62.918 V 26.082 L 81.41,44.5 Z m 0,0"
       fill="#4040b2"
       id="path2" /><path
       d="M 11.242,42.36 42.86,60.776 V 23.941 L 11.242,5.523 Z m 0,0 M 77.941,85.375 46.324,66.957 v 36.82 l 31.617,18.418 z m 0,0"
       fill="#5c4ee5"
       id="path3" /></g><path
     fill="#f34f29"
     d="m 275.03693,168.01694 -32.50626,-32.50509 c -1.87077,-1.87196 -4.90697,-1.87196 -6.78069,0 l -6.74945,6.75059 8.56244,8.56243 c 1.9905,-0.67177 4.27175,-0.22116 5.85769,1.36474 1.59415,1.59595 2.04121,3.89668 1.35295,5.89368 l 8.25218,8.25277 c 1.99641,-0.68827 4.30067,-0.24357 5.89427,1.35355 2.22935,2.2276 2.22935,5.83881 0,8.06759 a 5.7049349,5.7049349 0 0 1 -8.06998,0 5.7072938,5.7072938 0 0 1 -1.24148,-6.20507 l -7.69543,-7.69544 -0.001,20.25362 a 5.7255771,5.7255771 0 0 1 1.50926,1.07812 c 2.22819,2.22758 2.22819,5.83762 0,8.06994 -2.22877,2.22759 -5.84119,2.22759 -8.06759,0 -2.22819,-2.23174 -2.22819,-5.84175 0,-8.06994 a 5.6913699,5.6913699 0 0 1 1.86782,-1.24445 v -20.44116 a 5.6506752,5.6506752 0 0 1 -1.86782,-1.24502 c -1.68796,-1.68677 -2.09433,-4.16384 -1.22851,-6.2375 l -8.44153,-8.44152 -22.28892,22.28777 a 4.7966748,4.7966748 0 0 0 0,6.78244 l 32.50685,32.50512 c 1.87197,1.87194 4.90697,1.87194 6.78188,0 l 32.35411,-32.35412 a 4.7978543,4.7978543 0 0 0 -6e-4,-6.78305 z"
     id="path1-1"
     style="stroke-width:0.58978"
     inkscape:label="git" /><text
     xml:space="preserve"
     style="font-size:44.337px;font-family:sans-serif;-inkscape-font-specification:sans-serif;text-align:start;writing-mode:lr-tb;direction:ltr;text-anchor:start;fill:#29abe2;fill-opacity:1;stroke:#29abe2;stroke-width:0.554213;stroke-opacity:1"
     x="136.24376"
     y="185.70708"
     id="text11"
     inkscape:label="+ 2"><tspan
       sodipodi:role="line"
       id="tspan11"
       x="136.24376"
       y="185.70708"
       style="stroke-width:0.554213">+</tspan></text></svg>
